<svg xmlns="http://www.w3.org/2000/svg" width="24" height="24" viewBox="0 0 24 24"><defs><style>.a{fill:none;}.b{fill:#8e8e93;}</style></defs><g transform="translate(19530 -6383)"><rect class="a" width="24" height="24" transform="translate(-19530 6383)"/><g transform="translate(-19527 6385)"><path class="b" d="M18.693,42.456h1.644a.576.576,0,0,0,.576-.576V40.236a.576.576,0,0,0-.576-.576H18.693a.576.576,0,0,0-.576.576V41.88A.576.576,0,0,0,18.693,42.456Zm.164-2.056h1.316v1.316H18.857Z" transform="translate(-16.227 -32.219)"/><path class="b" d="M24.554,6.485a.411.411,0,0,0,.562-.149.9.9,0,0,1,.742-.514c.529,0,.976.659.976,1.439a1.688,1.688,0,0,1-.462,1.213.814.814,0,0,0-.514-.185.822.822,0,1,0,.8.992,2.374,2.374,0,0,0,.994-2.02A2.072,2.072,0,0,0,25.858,5a1.716,1.716,0,0,0-1.453.923A.411.411,0,0,0,24.554,6.485Z" transform="translate(-21.121 -5)"/><path class="b" d="M42.56,14.439h5.324a.411.411,0,0,0,0-.822H42.56a.411.411,0,0,0,0,.822Z" transform="translate(-35.1 -11.767)"/><path class="b" d="M25.548,13.617h-.781a.411.411,0,0,0,0,.822h.781a.411.411,0,0,1,.411.411v2.467H10.131V14.85a.411.411,0,0,1,.411-.411H14.1a.411.411,0,0,0,0-.822H10.542A1.235,1.235,0,0,0,9.309,14.85V29.856a1.235,1.235,0,0,0,1.233,1.233H25.548a1.235,1.235,0,0,0,1.233-1.233V14.85A1.234,1.234,0,0,0,25.548,13.617Zm.411,16.239a.412.412,0,0,1-.411.411H10.542a.412.412,0,0,1-.411-.411V18.139H25.959Z" transform="translate(-9.309 -11.767)"/><path class="b" d="M61.8,6.486a.412.412,0,0,0,.562-.149.9.9,0,0,1,.742-.514c.529,0,.976.659.976,1.439a1.689,1.689,0,0,1-.462,1.213.819.819,0,1,0,.29.806,2.375,2.375,0,0,0,.994-2.02A2.073,2.073,0,0,0,63.1,5a1.717,1.717,0,0,0-1.454.924A.411.411,0,0,0,61.8,6.486Z" transform="translate(-50.367 -5)"/><path class="b" d="M69.437,42.456h1.644a.576.576,0,0,0,.576-.576V40.236a.576.576,0,0,0-.576-.576H69.437a.576.576,0,0,0-.576.576V41.88A.576.576,0,0,0,69.437,42.456ZM69.6,40.4h1.316v1.316H69.6Z" transform="translate(-56.076 -32.219)"/><path class="b" d="M18.693,75.965h1.644a.576.576,0,0,0,.576-.576V73.745a.576.576,0,0,0-.576-.576H18.693a.576.576,0,0,0-.576.576v1.644A.576.576,0,0,0,18.693,75.965Zm.164-2.055h1.316v1.316H18.857Z" transform="translate(-16.227 -58.534)"/><path class="b" d="M52.521,42.456h1.645a.576.576,0,0,0,.576-.576V40.236a.576.576,0,0,0-.576-.576H52.521a.576.576,0,0,0-.576.576V41.88A.576.576,0,0,0,52.521,42.456Zm.164-2.056H54v1.316H52.685Z" transform="translate(-42.791 -32.219)"/><path class="b" d="M35.608,42.456h1.645a.576.576,0,0,0,.576-.576V40.236a.576.576,0,0,0-.576-.576H35.608a.576.576,0,0,0-.576.576V41.88A.576.576,0,0,0,35.608,42.456Zm.164-2.056h1.316v1.316H35.772Z" transform="translate(-29.51 -32.219)"/><path class="b" d="M18.693,59.21h1.644a.576.576,0,0,0,.576-.576V56.991a.576.576,0,0,0-.576-.576H18.693a.576.576,0,0,0-.576.576v1.644A.576.576,0,0,0,18.693,59.21Zm.164-2.056h1.316V58.47H18.857Z" transform="translate(-16.227 -45.376)"/><path class="b" d="M69.437,59.21h1.644a.576.576,0,0,0,.576-.576V56.991a.576.576,0,0,0-.576-.576H69.437a.576.576,0,0,0-.576.576v1.644A.576.576,0,0,0,69.437,59.21Zm.164-2.056h1.316V58.47H69.6Z" transform="translate(-56.076 -45.376)"/><path class="b" d="M52.521,59.21h1.645a.576.576,0,0,0,.576-.576V56.991a.576.576,0,0,0-.576-.576H52.521a.576.576,0,0,0-.576.576v1.644A.576.576,0,0,0,52.521,59.21Zm.164-2.056H54V58.47H52.685Z" transform="translate(-42.791 -45.376)"/><path class="b" d="M35.608,59.21h1.645a.576.576,0,0,0,.576-.576V56.991a.576.576,0,0,0-.576-.576H35.608a.576.576,0,0,0-.576.576v1.644A.576.576,0,0,0,35.608,59.21Zm.164-2.056h1.316V58.47H35.772Z" transform="translate(-29.51 -45.376)"/><path class="b" d="M52.521,75.965h1.645a.576.576,0,0,0,.576-.576V73.745a.576.576,0,0,0-.576-.576H52.521a.576.576,0,0,0-.576.576v1.644A.576.576,0,0,0,52.521,75.965Zm.164-2.055H54v1.316H52.685Z" transform="translate(-42.791 -58.534)"/><path class="b" d="M35.608,75.965h1.645a.576.576,0,0,0,.576-.576V73.745a.576.576,0,0,0-.576-.576H35.608a.576.576,0,0,0-.576.576v1.644A.576.576,0,0,0,35.608,75.965Zm.164-2.055h1.316v1.316H35.772Z" transform="translate(-29.51 -58.534)"/></g></g></svg>