<svg xmlns="http://www.w3.org/2000/svg" width="24" height="24.001" viewBox="0 0 24 24.001"><defs><style>.a{fill:none;}.b{fill:#8e8e93;}</style></defs><rect class="a" width="24" height="24"/><g transform="translate(-6 -957.361)"><path class="b" d="M18.467,957.362a7.728,7.728,0,0,0-7.733,7.733v2.4H10.2A3.2,3.2,0,0,0,7,970.7v2.133a3.2,3.2,0,0,0,3.2,3.2h2.667a.554.554,0,0,0,.533-.533v-7.467a.554.554,0,0,0-.533-.533H11.8v-2.4a6.667,6.667,0,1,1,13.333,0v2.4H24.067a.573.573,0,0,0-.533.533V975.5a.554.554,0,0,0,.533.533h1.017a2.944,2.944,0,0,1-1.175,1.817,6.394,6.394,0,0,1-3.658,1.108,1.861,1.861,0,1,0,.008,1.067,7.424,7.424,0,0,0,4.292-1.333,4.06,4.06,0,0,0,1.608-2.658h.575a3.2,3.2,0,0,0,3.2-3.2V970.7a3.2,3.2,0,0,0-3.2-3.2H26.2v-2.4A7.728,7.728,0,0,0,18.467,957.362Zm-8.267,11.2h2.133v6.4H10.2a2.117,2.117,0,0,1-2.133-2.133V970.7A2.117,2.117,0,0,1,10.2,968.562Zm14.4,0h2.133a2.117,2.117,0,0,1,2.133,2.133v2.133a2.117,2.117,0,0,1-2.133,2.133H24.6ZM18.467,978.7a.8.8,0,1,1-.8.8A.792.792,0,0,1,18.467,978.7Z" transform="translate(0 0)"/></g></svg>