<svg xmlns="http://www.w3.org/2000/svg" width="21.761" height="23.325" viewBox="0 0 21.761 23.325"><defs><style>.a{fill:#8e8e93;}</style></defs><path class="a" d="M30.1,43.777a1.793,1.793,0,0,1,.826-1.072l-.618-.92a2.882,2.882,0,0,0-1.288,1.742q-.028.12-.048.235l1.092.192C30.073,43.9,30.085,43.837,30.1,43.777Z" transform="translate(-22.289 -31.146)"/><path class="a" d="M59.944,10.794,59.883,11.9c.647.036,1.158.09,1.518.141a.552.552,0,0,0,.846-.09c.331-.5,3.234-4.928,3.234-6.777a3.7,3.7,0,1,0-7.393,0c0,1.358,1.563,4.1,2.527,5.666C60.4,10.823,60.175,10.807,59.944,10.794Zm1.842-8.207a2.591,2.591,0,0,1,2.588,2.588c0,1-1.439,3.62-2.588,5.448C60.636,8.8,59.2,6.178,59.2,5.176A2.591,2.591,0,0,1,61.785,2.588Z" transform="translate(-43.721 -1.479)"/><path class="a" d="M24.253,82.975c.538.087,1.228.2,2,.309l.16-1.1c-.77-.112-1.454-.22-1.987-.306Z" transform="translate(-18.816 -60.659)"/><path class="a" d="M54.03,37.723h.132l.006-1.108H54.03c-.664,0-1.311.024-1.924.072l.086,1.105C52.777,37.747,53.4,37.723,54.03,37.723Z" transform="translate(-39.317 -27.341)"/><path class="a" d="M66.63,61.631l-.354,1.051a2.376,2.376,0,0,1,1.28.969l.938-.591A3.47,3.47,0,0,0,66.63,61.631Z" transform="translate(-49.747 -45.754)"/><path class="a" d="M41.31,38.575l-.168-1.1a11.547,11.547,0,0,0-2.06.491l.367,1.046A10.5,10.5,0,0,1,41.31,38.575Z" transform="translate(-29.731 -27.977)"/><path class="a" d="M62.1,83.137l.24,1.083a5.011,5.011,0,0,0,2.04-.939l-.686-.871A3.9,3.9,0,0,1,62.1,83.137Z" transform="translate(-46.671 -61.048)"/><path class="a" d="M54.255,60.52l-.033,1.108c.346.01.677.017.988.022.381.007.729.013,1.024.026l.05-1.107c-.3-.014-.661-.021-1.054-.027C54.924,60.536,54.6,60.53,54.255,60.52Z" transform="translate(-40.875 -44.936)"/><path class="a" d="M71.351,72.857c.006.073.01.146.01.219a2.717,2.717,0,0,1-.388,1.38l.954.565a3.83,3.83,0,0,0,.542-1.945c0-.107,0-.213-.014-.318Z" transform="translate(-53.204 -53.944)"/><path class="a" d="M51.418,85.295c-.492-.023-1.043-.062-1.64-.116l-.1,1.1c.612.055,1.18.095,1.686.119.127.006.251.009.374.009h0l0-1.108C51.634,85.3,51.527,85.3,51.418,85.295Z" transform="translate(-37.531 -63.086)"/><path class="a" d="M30.468,53.883l-1.035.4a3.082,3.082,0,0,0,1.706,1.654l.461-1.008A2,2,0,0,1,30.468,53.883Z" transform="translate(-22.629 -40.051)"/><path class="a" d="M41.155,60.347a14.6,14.6,0,0,0,2.079.289l.083-1.105a13.487,13.487,0,0,1-1.92-.265Z" transform="translate(-31.257 -44.012)"/><path class="a" d="M36.923,84.844c.714.1,1.392.179,2.016.248l.122-1.1c-.616-.068-1.286-.15-1.992-.245Z" transform="translate(-28.142 -62.031)"/><path class="a" d="M5.747,74a2.091,2.091,0,1,0,2.091,2.091A2.094,2.094,0,0,0,5.747,74Zm0,3.074a.983.983,0,1,1,.983-.983A.985.985,0,0,1,5.747,77.076Z" transform="translate(-3.655 -54.859)"/><path class="a" d="M70.09,12.241a1.12,1.12,0,1,0-1.12,1.12A1.121,1.121,0,0,0,70.09,12.241Z" transform="translate(-50.906 -8.576)"/></svg>