<svg xmlns="http://www.w3.org/2000/svg" width="24" height="24" viewBox="0 0 24 24"><defs><style>.a{fill:#8e8e93;}.b{fill:none;}</style></defs><g transform="translate(-8.223 -15.5)"><path class="a" d="M21.224,18.048a1.144,1.144,0,0,0-1.009-.548,1.178,1.178,0,0,0-1.009.548L8.418,34.834A1.194,1.194,0,0,0,9.428,36.68h21.6a1.2,1.2,0,0,0,1.009-1.846ZM31.549,35.786A.619.619,0,0,1,31,36.1H9.428a.664.664,0,0,1-.548-.317.616.616,0,0,1,.029-.635L19.7,18.365a.611.611,0,0,1,1.038,0L31.52,35.151A.556.556,0,0,1,31.549,35.786Z" transform="translate(0 0)"/><path class="a" d="M44.554,46.5a2.262,2.262,0,0,0-1.484.485,1.682,1.682,0,0,0-.571,1.341h.942a.868.868,0,0,1,.314-.742,1.4,1.4,0,0,1,.8-.257,1.043,1.043,0,0,1,.827.285,1.5,1.5,0,0,1,.086,1.626c-.143.2-.371.514-.713.913a2.5,2.5,0,0,0-.628.742,2.772,2.772,0,0,0-.114,1h.942a3.574,3.574,0,0,1,.057-.685.954.954,0,0,1,.342-.485,6.3,6.3,0,0,0,.942-1.113,2.151,2.151,0,0,0,.342-1.17,1.747,1.747,0,0,0-.542-1.4A2.281,2.281,0,0,0,44.554,46.5Z" transform="translate(-24.369 -20.6)"/><rect class="a" width="0.97" height="1.027" transform="translate(19.643 32.334)"/></g><rect class="b" width="24" height="24"/></svg>