<svg xmlns="http://www.w3.org/2000/svg" xmlns:xlink="http://www.w3.org/1999/xlink" width="102.908" height="95.151" viewBox="0 0 102.908 95.151"><defs><style>.a,.b{fill:none;}.a,.c,.e{clip-rule:evenodd;}.c,.d{fill:#ffd7b7;}.e,.f{fill:#ffe66f;}.g{clip-path:url(#a);}.h{isolation:isolate;}.i{clip-path:url(#b);}.j{clip-path:url(#c);}.k{clip-path:url(#d);}.l{fill:#100300;}.m{clip-path:url(#e);}.n{clip-path:url(#f);}.o{clip-path:url(#g);}.p{fill:#dba78d;}.q{clip-path:url(#i);}.r{fill:#f2b699;}.s{clip-path:url(#k);}.t{fill:#d4a289;}.u{clip-path:url(#m);}.v{clip-path:url(#o);}.w{clip-path:url(#q);}.x{clip-path:url(#s);}.y{clip-path:url(#u);}.z{clip-path:url(#v);}.aa{clip-path:url(#w);}.ab{fill:#2d2018;}.ac{clip-path:url(#y);}.ad{clip-path:url(#aa);}.ae{clip-path:url(#ac);}.af{clip-path:url(#ae);}.ag{fill:#b89367;}.ah{clip-path:url(#af);}.ai{fill:#a48057;}.aj{clip-path:url(#ag);}.ak{fill:#676766;}.al{clip-path:url(#ah);}.am{fill:#4f5152;}.an{clip-path:url(#ai);}.ao{fill:#fffefe;}.ap{clip-path:url(#aj);}.aq{fill:#e5e6e2;}.ar{clip-path:url(#ak);}.as{fill:#b5b7b5;}.at{clip-path:url(#al);}.au{fill:#999e9f;}.av{clip-path:url(#am);}.aw{fill:#8a8d8c;}.ax{clip-path:url(#an);}.ay{fill:#747779;}.az{clip-path:url(#ao);}.ba{fill:#787b7a;}.bb{clip-path:url(#ap);}.bc{clip-path:url(#aq);}.bd{fill:#626566;}.be{clip-path:url(#ar);}.bf{clip-path:url(#as);}.bg{clip-path:url(#at);}.bh{clip-path:url(#au);}.bi{clip-path:url(#av);}.bj{clip-path:url(#aw);}.bk{clip-path:url(#ax);}.bl{clip-path:url(#ay);}.bm{clip-path:url(#az);}.bn{fill:#149d8f;}.bo{clip-path:url(#ba);}.bp{clip-path:url(#bb);}.bq{fill:#3a3a39;}.br{clip-path:url(#bc);}.bs{clip-path:url(#bd);}.bt{clip-path:url(#be);}.bu{clip-path:url(#bf);}.bv{clip-path:url(#bg);}.bw{clip-path:url(#bh);}</style><clipPath id="a"><path class="a" d="M95.715-753.016a47.564,47.564,0,0,1-47.564,47.564A47.564,47.564,0,0,1,.586-753.016a47.565,47.565,0,0,1,47.565-47.565,47.565,47.565,0,0,1,47.564,47.565" transform="translate(-0.586 800.581)"/></clipPath><clipPath id="b"><rect class="b" width="75.92" height="86.134"/></clipPath><clipPath id="c"><path class="a" d="M168.71-514.833c-.266.391-1.083,33.468,4.73,40.24h32.9s8.985-25.394,2.865-40.24H168.71" transform="translate(-168.514 514.833)"/></clipPath><clipPath id="d"><path class="b" d="M103-674.36h79.578V-764H103Z" transform="translate(-103 764)"/></clipPath><clipPath id="e"><path class="c" d="M256.292-383.3h18.215v-12.274H256.292Z" transform="translate(-256.292 395.571)"/></clipPath><clipPath id="f"><path class="d" d="M103-674.36h79.578V-764H103Z" transform="translate(-103 764)"/></clipPath><clipPath id="g"><path class="a" d="M269.569-384.921h-.148a24.5,24.5,0,0,1-8.711-1.772,15.222,15.222,0,0,1-4.418-2.529v-6.348h18.215v10.156a28.555,28.555,0,0,1-4.938.494" transform="translate(-256.292 395.571)"/></clipPath><clipPath id="i"><path class="a" d="M439.456-556.26c.062-.452.829-1.187,1.163-1.435a1.1,1.1,0,0,1,1.721.735,9.415,9.415,0,0,1,.261,2.038,8.964,8.964,0,0,1-.867,4.7,6.3,6.3,0,0,1-2.167,2.4.774.774,0,0,1-1.174-.633l1.063-7.8" transform="translate(-438.392 557.917)"/></clipPath><clipPath id="k"><path class="a" d="M440.114-547.217c.044-.324.593-.85.832-1.027.536-.4,1.075.011,1.232.526a6.7,6.7,0,0,1,.186,1.458,6.443,6.443,0,0,1-.621,3.363,4.529,4.529,0,0,1-1.551,1.714.554.554,0,0,1-.841-.453l.762-5.581" transform="translate(-439.352 548.403)"/></clipPath><clipPath id="m"><path class="a" d="M166.034-556.26c-.062-.452-.829-1.187-1.164-1.435-.747-.554-1.5.016-1.72.735a9.3,9.3,0,0,0-.261,2.038,8.989,8.989,0,0,0,.866,4.7,6.3,6.3,0,0,0,2.168,2.4.774.774,0,0,0,1.174-.633l-1.063-7.8" transform="translate(-162.863 557.917)"/></clipPath><clipPath id="o"><path class="a" d="M172.065-547.217c-.044-.324-.592-.85-.833-1.027a.79.79,0,0,0-1.231.526,6.88,6.88,0,0,0-.188,1.458,6.444,6.444,0,0,0,.622,3.363,4.517,4.517,0,0,0,1.551,1.714.555.555,0,0,0,.841-.453l-.763-5.581" transform="translate(-169.795 548.403)"/></clipPath><clipPath id="q"><path class="c" d="M223.406-687.967a30.886,30.886,0,0,1-3.313,14.792,29.469,29.469,0,0,1-8.714,9.5c-2.769,2.019-5.741,4.37-9.244,4.084-3.656-.3-6.5-3.415-9.172-5.845a31.783,31.783,0,0,1-8.544-12.659,29.254,29.254,0,0,1-1.643-9.868c0-16.623,9.1-27.079,20.315-27.079s20.315,10.456,20.315,27.079" transform="translate(-182.776 715.046)"/></clipPath><clipPath id="s"><path class="c" d="M133.054-311.665,113.276-317.6H97.406l-19.779,5.936s-9.166,3.9-10.184,16.235h75.8c-1.018-12.337-10.184-16.235-10.184-16.235" transform="translate(-67.443 317.601)"/></clipPath><clipPath id="u"><path class="e" d="M133.054-296.91l-10.938-3.282L105.34-283.429,88.515-300.178,77.627-296.91s-9.166,3.9-10.184,16.235h75.8c-1.018-12.337-10.184-16.235-10.184-16.235" transform="translate(-67.443 300.192)"/></clipPath><clipPath id="v"><path class="f" d="M103-674.36h79.578V-764H103Z" transform="translate(-103 764)"/></clipPath><clipPath id="w"><path class="a" d="M225.6-722.753s9.783,15.516,34.038,18.155c0,0,4.59-17.675-12.469-26.269,0,0-13.055-5.388-21.569,8.115" transform="translate(-225.6 731.929)"/></clipPath><clipPath id="y"><path class="a" d="M190.41-699.439s-6.317,4.087-9.06,15.495c0,0-2.939-21.5,12.265-24.18l-3.206,8.685" transform="translate(-181.122 708.124)"/></clipPath><clipPath id="aa"><path class="a" d="M383.671-657.054s6.511,41.412-3.776,53.132c0,0,13.153-1.953,13.8-20.055,0,0,2.344-36.984-6.557-49.747l-3.47,16.67" transform="translate(-379.894 673.724)"/></clipPath><clipPath id="ac"><path class="a" d="M157.051-631.84s-15.142-1.795-10.975-48.365c0,0,1.042-25.863,16.187-26.459l-.876,9.813s-8.7,2.592-7.58,23.058c0,0-.886,32.967,3.244,41.952" transform="translate(-145.351 706.663)"/></clipPath><clipPath id="ae"><path class="a" d="M2.814-364A2.8,2.8,0,0,0,0-361.206v29.032a2.8,2.8,0,0,0,2.814,2.794H13.506V-364H2.814" transform="translate(0 364)"/></clipPath><clipPath id="af"><path class="a" d="M152.981-364H142v34.62h10.981a2.8,2.8,0,0,0,2.81-2.794v-29.032a2.8,2.8,0,0,0-2.81-2.794" transform="translate(-142 364)"/></clipPath><clipPath id="ag"><path class="a" d="M24-320.328H35.223V-352H24Z" transform="translate(-24 352)"/></clipPath><clipPath id="ah"><path class="a" d="M142-320.328h11.6V-352H142Z" transform="translate(-142 352)"/></clipPath><clipPath id="ai"><path class="a" d="M28-316.565H38.842V-347H28Z" transform="translate(-28 347)"/></clipPath><clipPath id="aj"><path class="a" d="M142-316.565h11.033V-347H142Z" transform="translate(-142 347)"/></clipPath><clipPath id="ak"><path class="a" d="M101-368v.872A1.137,1.137,0,0,0,102.148-366H104.9v-2H101" transform="translate(-101 368)"/></clipPath><clipPath id="al"><path class="a" d="M142-368v2h3.11a1.148,1.148,0,0,0,1.17-1.125V-368H142" transform="translate(-142 368)"/></clipPath><clipPath id="am"><path class="a" d="M79.1-360a1.113,1.113,0,0,0-1.1,1.124v.131a1.112,1.112,0,0,0,1.1,1.123h4.986V-360H79.1" transform="translate(-78 360)"/></clipPath><clipPath id="an"><path class="a" d="M147.354-360H142v2.378h5.354a1.118,1.118,0,0,0,1.114-1.123v-.131A1.119,1.119,0,0,0,147.354-360" transform="translate(-142 360)"/></clipPath><clipPath id="ao"><path class="a" d="M58.275-294.566h3.16v-3.159h-3.16Zm-.275.275h3.709V-298H58Z" transform="translate(-58 298)"/></clipPath><clipPath id="ap"><path class="a" d="M111-282.291h2.948v-.538H111Z" transform="translate(-111 282.829)"/></clipPath><clipPath id="aq"><path class="a" d="M142-282.291h8.275v-.538H142Z" transform="translate(-142 282.829)"/></clipPath><clipPath id="ar"><path class="a" d="M58.275-199.565h3.16v-3.16h-3.16Zm-.275.275h3.709V-203H58Z" transform="translate(-58 203)"/></clipPath><clipPath id="as"><path class="a" d="M111-187.291h2.948v-.538H111Z" transform="translate(-111 187.829)"/></clipPath><clipPath id="at"><path class="a" d="M142-187.291h8.275v-.538H142Z" transform="translate(-142 187.829)"/></clipPath><clipPath id="au"><path class="a" d="M58.275-102.565h3.16v-3.16h-3.16Zm-.275.275h3.709V-106H58Z" transform="translate(-58 106)"/></clipPath><clipPath id="av"><path class="a" d="M111-90.291h2.948v-.538H111Z" transform="translate(-111 90.829)"/></clipPath><clipPath id="aw"><path class="a" d="M142-90.291h8.275v-.538H142Z" transform="translate(-142 90.829)"/></clipPath><clipPath id="ax"><path class="a" d="M104.392-395.667a.666.666,0,0,1,.508-.65V-397a1.336,1.336,0,0,0-1.178,1.333h-1.574A1.156,1.156,0,0,0,101-394.5v.261h3.9v-.776a.667.667,0,0,1-.508-.65" transform="translate(-101 397)"/></clipPath><clipPath id="ay"><path class="a" d="M146.28-394.5a1.164,1.164,0,0,0-1.17-1.158h-1.6A1.347,1.347,0,0,0,142.154-397a1.381,1.381,0,0,0-.154.015v.679a.68.68,0,0,1,.154-.019.668.668,0,0,1,.671.665.668.668,0,0,1-.671.665.718.718,0,0,1-.154-.019v.772h4.28v-.26" transform="translate(-142 397)"/></clipPath><clipPath id="az"><path class="a" d="M169.8-146.052l1.77-1.938L170.117-149c-.581,1.243-.908,1.943-1.117,2.392l.8.556" transform="translate(-169 149)"/></clipPath><clipPath id="ba"><path class="a" d="M309-373.767,310.55-376l1.969,2.952-1.12,1.613-2.4-2.332" transform="translate(-309 376)"/></clipPath><clipPath id="bb"><path class="a" d="M255.329-277.062,252.535-279c-.181.288-.359.573-.535.857l2.742,1.9c.194-.271.39-.543.587-.82" transform="translate(-252 279)"/></clipPath><clipPath id="bc"><path class="a" d="M185.293-257c-1.884,3-3.635,5.982-6.293,10.313l1.633,1.1c3.1-4.03,5.272-6.735,7.4-9.565L185.293-257" transform="translate(-179 257)"/></clipPath><clipPath id="bd"><path class="a" d="M224.8-348.746a1.138,1.138,0,0,0-1.179-.175c-.843.274-1.776,1.228-2.771,2.835-2.05,3.185-4.821,7.026-4.849,7.065a2.1,2.1,0,0,0,2.23-1.766c.76-1.1,4.163-5.69,4.2-5.736a1.372,1.372,0,0,1,.541-.423c.147-.048.369-.066.588.321.18.32.363.34.484.3.485-.157.732-1.808.8-2.31l.009-.065-.046-.047" transform="translate(-216 349)"/></clipPath><clipPath id="be"><path class="a" d="M248.519-267.066,245.673-269c-.228.358-.451.714-.673,1.069l2.766,1.879c.251-.336.5-.673.753-1.015" transform="translate(-245 269)"/></clipPath><clipPath id="bf"><path class="a" d="M266.7-353.037,263.867-355c-2.012,2.867-3.522,5.14-4.867,7.271l2.823,1.954c1.459-2.052,2.99-4.311,4.881-7.262" transform="translate(-259 355)"/></clipPath><clipPath id="bg"><path class="a" d="M163.438-124a3.405,3.405,0,0,0-.268.6,3.318,3.318,0,0,0-.17.925,4.65,4.65,0,0,0,.751-.444,4.542,4.542,0,0,0,.581-.5l-.894-.579" transform="translate(-163 124)"/></clipPath><clipPath id="bh"><path class="a" d="M270.347-339,266-332.655l1.307.883,4.4-6.332-1.36-.9" transform="translate(-266 339)"/></clipPath></defs><g transform="translate(-134 -420.947)"><g class="g" transform="translate(134 420.947)"><g class="h" transform="translate(10.125 9.693)"><g class="i" transform="translate(0 0)"><g class="j" transform="translate(15.476 33.869)"><g class="k" transform="translate(-9.988 -37.985)"><path class="l" d="M163.514-519.833h44.349v41.765H163.514Z" transform="translate(-154.289 557.056)"/></g></g><g class="m" transform="translate(28.857 52.051)"><g class="n" transform="translate(-23.369 -56.167)"><path class="d" d="M251.292-400.571h19.74v13.8h-19.74Z" transform="translate(-228.685 455.975)"/></g></g><g class="o" transform="translate(28.857 52.051)"><g class="k" transform="translate(-23.369 -56.167)"><path class="p" d="M251.292-400.571h19.74V-388.4h-19.74Z" transform="translate(-228.685 455.975)"/></g></g><g class="q" transform="translate(56.618 27.301)"><g class="k" transform="translate(-51.13 -31.417)"><path class="r" d="M433.392-562.917h5.76V-551.2h-5.76Z" transform="translate(-383.024 593.572)"/></g></g><g class="s" transform="translate(56.765 28.752)"><g class="k" transform="translate(-51.277 -32.868)"><path class="t" d="M434.352-553.4h4.555v8.82h-4.555Z" transform="translate(-383.838 585.508)"/></g></g><g class="u" transform="translate(14.614 27.301)"><g class="k" transform="translate(-9.126 -31.417)"><path class="r" d="M157.863-562.917h5.759V-551.2h-5.759Z" transform="translate(-149.499 593.572)"/></g></g><g class="v" transform="translate(15.671 28.752)"><g class="k" transform="translate(-10.183 -32.868)"><path class="t" d="M164.8-553.4h4.557v8.82H164.8Z" transform="translate(-155.375 585.508)"/></g></g><g class="w" transform="translate(17.65 3.347)"><g class="n" transform="translate(-12.162 -7.463)"><path class="d" d="M177.776-720.046H219.93v57H177.776Z" transform="translate(-166.376 726.746)"/></g></g><g class="x" transform="translate(0.067 63.937)"><g class="n" transform="translate(5.421 -68.053)"><path class="d" d="M62.443-322.6h77.32v23.695H62.443Z" transform="translate(-68.626 389.892)"/></g></g><g class="y" transform="translate(0.067 66.591)"><g class="z" transform="translate(5.421 -70.707)"><path class="f" d="M62.443-305.192h77.32v21.041H62.443Z" transform="translate(-68.626 375.137)"/></g></g><g class="aa" transform="translate(24.178 0.773)"><g class="k" transform="translate(-18.69 -4.889)"><path class="ab" d="M220.6-736.929h36.124v28.855H220.6Z" transform="translate(-202.672 741.056)"/></g></g><g class="ac" transform="translate(17.398 4.402)"><g class="k" transform="translate(-11.91 -8.518)"><path class="ab" d="M176.122-713.124H190.14v25.7H176.122Z" transform="translate(-164.974 720.88)"/></g></g><g class="ad" transform="translate(47.7 9.646)"><g class="k" transform="translate(-42.212 -13.763)"><path class="ab" d="M374.894-678.724H390.5V-607.4H374.894Z" transform="translate(-333.444 691.724)"/></g></g><g class="ae" transform="translate(11.944 4.625)"><g class="k" transform="translate(-6.456 -8.741)"><path class="ab" d="M140.351-711.663h18.437v76.348H140.351Z" transform="translate(-134.657 719.642)"/></g></g></g></g></g><g transform="translate(204 875.34)"><g class="af" transform="translate(0 -393.861)"><path class="ag" d="M-5-369H9.457v35.571H-5Z" transform="translate(4.524 368.524)"/></g><g class="ah" transform="translate(13.506 -393.861)"><path class="ai" d="M137-369h14.742v35.571H137Z" transform="translate(-137.476 368.524)"/></g><g class="aj" transform="translate(2.283 -392.72)"><path class="ak" d="M19-357H31.174v32.623H19Z" transform="translate(-19.476 356.524)"/></g><g class="al" transform="translate(13.506 -392.72)"><path class="am" d="M137-357h12.554v32.623H137Z" transform="translate(-137.476 356.524)"/></g><g class="an" transform="translate(2.663 -392.245)"><path class="ao" d="M23-352H34.794v31.386H23Z" transform="translate(-23.476 351.524)"/></g><g class="ap" transform="translate(13.506 -392.245)"><path class="aq" d="M137-352h11.984v31.386H137Z" transform="translate(-137.476 351.524)"/></g><g class="ar" transform="translate(9.606 -394.242)"><path class="as" d="M96-373h4.851v2.948H96Z" transform="translate(-96.476 372.524)"/></g><g class="at" transform="translate(13.506 -394.242)"><path class="au" d="M137-373h5.231v2.948H137Z" transform="translate(-137.476 372.524)"/></g><g class="av" transform="translate(7.419 -393.481)"><path class="aw" d="M73-365h7.038v3.329H73Z" transform="translate(-73.476 364.524)"/></g><g class="ax" transform="translate(13.506 -393.481)"><path class="ay" d="M137-365h7.419v3.329H137Z" transform="translate(-137.476 364.524)"/></g><g class="az" transform="translate(5.516 -387.584)"><path class="ba" d="M53-303h4.66v4.66H53Z" transform="translate(-53.476 302.524)"/></g><g class="bb" transform="translate(10.557 -386.141)"><path class="ba" d="M106-287.829h3.9v1.489H106Z" transform="translate(-106.476 287.353)"/></g><g class="bc" transform="translate(13.506 -386.141)"><path class="bd" d="M137-287.829h9.226v1.489H137Z" transform="translate(-137.476 287.353)"/></g><g class="be" transform="translate(5.516 -378.549)"><path class="ba" d="M53-208h4.66v4.66H53Z" transform="translate(-53.476 207.524)"/></g><g class="bf" transform="translate(10.557 -377.106)"><path class="ba" d="M106-192.829h3.9v1.489H106Z" transform="translate(-106.476 192.353)"/></g><g class="bg" transform="translate(13.506 -377.106)"><path class="bd" d="M137-192.829h9.226v1.489H137Z" transform="translate(-137.476 192.353)"/></g><g class="bh" transform="translate(5.516 -369.323)"><path class="ba" d="M53-111h4.66v4.66H53Z" transform="translate(-53.476 110.524)"/></g><g class="bi" transform="translate(10.557 -367.88)"><path class="ba" d="M106-95.829h3.9v1.489H106Z" transform="translate(-106.476 95.353)"/></g><g class="bj" transform="translate(13.506 -367.88)"><path class="bd" d="M137-95.829h9.226v1.489H137Z" transform="translate(-137.476 95.353)"/></g><g class="bk" transform="translate(9.606 -397)"><path class="ba" d="M96-402h4.851v3.709H96Z" transform="translate(-96.476 401.524)"/></g><g class="bl" transform="translate(13.506 -397)"><path class="bd" d="M137-402h5.231v3.709H137Z" transform="translate(-137.476 401.524)"/></g><g class="bm" transform="translate(16.073 -373.413)"><path class="bn" d="M164-154h3.519v3.9H164Z" transform="translate(-164.476 153.524)"/></g><g class="bo" transform="translate(29.389 -395.003)"><path class="bn" d="M304-381h4.47v5.516H304Z" transform="translate(-304.476 380.524)"/></g><g class="bp" transform="translate(23.968 -385.777)"><path class="bq" d="M247-284h4.28v3.709H247Z" transform="translate(-247.476 283.524)"/></g><g class="br" transform="translate(17.025 -383.685)"><path class="bq" d="M174-262h9.986v12.364H174Z" transform="translate(-174.476 261.524)"/></g><g class="bs" transform="translate(20.544 -392.435)"><path class="bq" d="M211-354h9.8v10.938H211Z" transform="translate(-211.476 353.524)"/></g><g class="bt" transform="translate(23.302 -384.826)"><path class="bn" d="M240-274h4.47v3.9H240Z" transform="translate(-240.476 273.524)"/></g><g class="bu" transform="translate(24.633 -393.005)"><path class="bq" d="M254-360h8.655v10.177H254Z" transform="translate(-254.476 359.524)"/></g><g class="bv" transform="translate(15.503 -371.035)"><path class="bq" d="M158-129h2.283v2.473H158Z" transform="translate(-158.476 128.524)"/></g><g class="bw" transform="translate(25.299 -391.484)"><path class="as" d="M261-344h6.658v8.179H261Z" transform="translate(-261.476 343.524)"/></g></g></g></svg>