<svg xmlns="http://www.w3.org/2000/svg" width="16.906" height="16.5" viewBox="0 0 16.906 16.5"><defs><style>.a{fill:#afafb2;stroke:#afafb2;}.a,.b{stroke-width:0.5px;}.b{fill:#aeaeb2;stroke:#aeaeb2;}</style></defs><g transform="translate(0.477 -21.079)"><path class="a" d="M15.2,22.846l-.586-.639a2.589,2.589,0,0,0-3.885,0h0L3.236,30.376a2.258,2.258,0,0,0,0,3l.391.426a1.889,1.889,0,0,0,2.747,0L11.9,27.768a.387.387,0,0,0,.008-.514.314.314,0,0,0-.471-.009l-.008.009L5.9,33.285a1.242,1.242,0,0,1-1.8,0l-.391-.426a1.483,1.483,0,0,1,0-1.969h0L11.2,22.721a2.007,2.007,0,0,1,2.943,0l.586.639a2.419,2.419,0,0,1,0,3.21L6.374,35.68a2.719,2.719,0,0,1-4.081,0l-.781-.852a3.354,3.354,0,0,1,0-4.452L7.9,23.4a.387.387,0,0,0,.008-.514.314.314,0,0,0-.471-.009l-.008.009L1.041,29.861a4.128,4.128,0,0,0,0,5.48h0l.781.852a3.347,3.347,0,0,0,5.023,0h0l8.35-9.109a3.193,3.193,0,0,0,0-4.238Z" transform="translate(0)"/><path class="b" d="M4.333,37.329a3.391,3.391,0,0,1-2.512-1.135l-.781-.852a4.128,4.128,0,0,1,0-5.48h0l6.391-6.972a.314.314,0,0,1,.471-.009.387.387,0,0,1,.008.514L7.9,23.4,1.512,30.376a3.354,3.354,0,0,0,0,4.452l.781.852a2.719,2.719,0,0,0,4.081,0l8.35-9.109a2.419,2.419,0,0,0,0-3.21l-.586-.639a2.007,2.007,0,0,0-2.943,0L3.707,30.89a1.483,1.483,0,0,0,0,1.969h0l.391.426a1.242,1.242,0,0,0,1.8,0l5.529-6.031a.314.314,0,0,1,.471-.009.387.387,0,0,1,.008.514l-.008.009L6.374,33.8a1.889,1.889,0,0,1-2.747,0l-.391-.426a2.258,2.258,0,0,1,0-3l7.488-8.169a2.589,2.589,0,0,1,3.885,0h0l.586.639a3.193,3.193,0,0,1,0,4.239h0l-8.35,9.109A3.391,3.391,0,0,1,4.333,37.329Z" transform="translate(0 0)"/></g></svg>