<svg xmlns="http://www.w3.org/2000/svg" width="24" height="24" viewBox="0 0 24 24"><defs><style>.a{fill:none;}.b{fill:#fff;stroke:#8e8e93;stroke-width:0.2px;}</style></defs><g transform="translate(19348 -6524)"><g transform="translate(-2 -9)"><rect class="a" width="24" height="24" transform="translate(-19346 6533)"/><g transform="translate(-19343.332 6537)"><g transform="translate(0)"><path class="b" d="M18.182,6.5H3.344A1.427,1.427,0,0,0,1.932,7.936v9.681a1.427,1.427,0,0,0,1.412,1.438H4.852a.376.376,0,0,1,.327.194L6.217,21.1a1.042,1.042,0,0,0,.894.541h.023a1.038,1.038,0,0,0,.892-.5L9.2,19.233a.377.377,0,0,1,.32-.18h8.662A1.427,1.427,0,0,0,19.6,17.616V7.936A1.428,1.428,0,0,0,18.182,6.5Zm.735,11.119a.742.742,0,0,1-.735.748H9.522a1.043,1.043,0,0,0-.893.5L7.454,20.775a.366.366,0,0,1-.327.18.37.37,0,0,1-.32-.194L5.768,18.907a1.054,1.054,0,0,0-.916-.542H3.344a.742.742,0,0,1-.735-.748V7.936a.742.742,0,0,1,.735-.748H18.182a.742.742,0,0,1,.735.748Z" transform="translate(-1.932 -6.498)"/><path class="b" d="M15.739,9.313H5.415a.345.345,0,0,0,0,.69H15.74a.345.345,0,0,0,0-.69Z" transform="translate(-1.746 -6.277)"/><path class="b" d="M15.739,12H5.415a.345.345,0,0,0,0,.69H15.74a.345.345,0,0,0,0-.69Z" transform="translate(-1.746 -6.066)"/><path class="b" d="M15.739,14.686H5.415a.345.345,0,0,0,0,.69H15.74a.345.345,0,0,0,0-.69Z" transform="translate(-1.746 -5.856)"/></g></g></g></g></svg>