<svg xmlns="http://www.w3.org/2000/svg" width="47" height="47" viewBox="0 0 47 47"><defs><style>.a{fill:#f0f0f0;}.b{fill:#7b72af;}</style></defs><circle class="a" cx="23.5" cy="23.5" r="23.5"/><g transform="translate(9.4 9.4)"><path class="b" d="M53.779,48.479l6.034,6.034c.537-.589,1.1-1.258,1.67-2a1.5,1.5,0,0,0-.21-1.943l-3.759-3.759a1.586,1.586,0,0,0-1.142-.473,1.313,1.313,0,0,0-.95.405c-.628.659-1.07,1.126-1.4,1.485Z" transform="translate(-33.751 -29.565)"/><path class="b" d="M21.26,15.73c.359-.334.826-.776,1.485-1.4a1.313,1.313,0,0,0,.405-.95,1.586,1.586,0,0,0-.473-1.142L18.921,8.479a1.488,1.488,0,0,0-1.94-.207c-.743.57-1.414,1.129-2,1.67l6.028,6.028Z" transform="translate(-11.925 -8.001)"/><path class="b" d="M33.457,36.855c-1.667,1.689-3.045,2.489-4.191,2.411-3.535-.236-8.737-3.784-13.107-8.155S8.245,21.543,8,18c-.074-1.142.744-2.551,2.415-4.187l6.033,6.033-.1.1-.319-.3.311.306a1.41,1.41,0,0,0-.284,1.571,19.783,19.783,0,0,0,4.082,5.6,19.867,19.867,0,0,0,5.6,4.086,1.416,1.416,0,0,0,1.571-.284l.114-.114Z" transform="translate(-7.999 -11.272)"/></g></svg>