<svg xmlns="http://www.w3.org/2000/svg" width="24" height="24" viewBox="0 0 24 24"><defs><style>.a{fill:none;}.b{fill:#7b72af;stroke:#7b72af;stroke-width:0.2px;}</style></defs><g transform="translate(19348 -6314)"><g transform="translate(-255 -26)"><g transform="translate(-19093 6340)"><rect class="a" width="24" height="24"/><g transform="translate(1.999 4)"><path class="b" d="M6.243,24.044l8.55-7.015a1.133,1.133,0,0,1,1.418,0l5.58,4.6v8.277a1.1,1.1,0,0,1-1.1,1.084h-7V25.438a.48.48,0,0,1,.45-.443h2.7a.48.48,0,0,1,.45.443v5.813a.45.45,0,0,0,.9,0V25.438a1.373,1.373,0,0,0-1.35-1.328h-2.7a1.373,1.373,0,0,0-1.35,1.328v5.532h-2.5a1.1,1.1,0,0,1-1.1-1.084l.058-8.1a.45.45,0,0,0-.9,0l-.058,8.1a1.991,1.991,0,0,0,2,1.97h2.745a.485.485,0,0,0,.405,0h7.245a1.991,1.991,0,0,0,2-1.97V22.362l2.048,1.682a.478.478,0,0,0,.293.111A.408.408,0,0,0,25.369,24a.427.427,0,0,0-.068-.62l-8.55-7.015a2,2,0,0,0-2.565,0L5.636,23.38a.447.447,0,0,0-.068.62A.5.5,0,0,0,6.243,24.044Z" transform="translate(-5.472 -15.9)"/></g></g></g></g></svg>