<svg xmlns="http://www.w3.org/2000/svg" width="24" height="24" viewBox="0 0 24 24"><defs><style>.a{fill:none;}.b{fill:#fff;stroke:#8e8e93;}.c{fill:#8e8e93;}.d{stroke:none;}</style></defs><g transform="translate(-133 -306)"><rect class="a" width="24" height="24" transform="translate(133 306)"/><g transform="translate(135.666 310)"><g class="b"><rect class="d" width="18.667" height="16" rx="2"/><rect class="a" x="0.5" y="0.5" width="17.667" height="15" rx="1.5"/></g><path class="c" d="M98.944,74H95.315a.368.368,0,0,0-.378.356v3.421a.368.368,0,0,0,.378.356h3.629a.368.368,0,0,0,.378-.356V74.356A.368.368,0,0,0,98.944,74Zm-.378,3.421H95.693V74.713h2.873Z" transform="translate(-92.392 -70.758)"/><path class="c" d="M101.255,232.578a.394.394,0,0,0-.535,0l-1,.947-.467-.441a.394.394,0,0,0-.535,0,.342.342,0,0,0,0,.5l.734.693a.394.394,0,0,0,.535,0l1.272-1.2A.342.342,0,0,0,101.255,232.578Z" transform="translate(-95.209 -223.584)"/><path class="c" d="M101.255,308.945a.4.4,0,0,0-.535,0l-1,.947-.467-.441a.394.394,0,0,0-.535,0,.342.342,0,0,0,0,.5l.734.693a.394.394,0,0,0,.535,0l1.272-1.2A.342.342,0,0,0,101.255,308.945Z" transform="translate(-95.209 -297.23)"/><path class="c" d="M213.755,249h-7.2c-.341,0-.617.16-.617.356s.276.356.617.356h7.2c.341,0,.617-.16.617-.356S214.1,249,213.755,249Z" transform="translate(-197.804 -239.522)"/><path class="c" d="M251.875,74h-4.321c-.341,0-.617.16-.617.356s.276.356.617.356h4.321c.341,0,.617-.16.617-.356S252.216,74,251.875,74Z" transform="translate(-236.273 -70.758)"/><path class="c" d="M251.875,122h-4.321c-.341,0-.617.16-.617.356s.276.356.617.356h4.321c.341,0,.617-.16.617-.356S252.216,122,251.875,122Z" transform="translate(-236.273 -117.048)"/><path class="c" d="M251.875,170h-4.321c-.341,0-.617.16-.617.356s.276.356.617.356h4.321c.341,0,.617-.16.617-.356S252.216,170,251.875,170Z" transform="translate(-236.273 -163.337)"/><path class="c" d="M213.755,325h-7.2c-.341,0-.617.16-.617.356s.276.356.617.356h7.2c.341,0,.617-.159.617-.356S214.1,325,213.755,325Z" transform="translate(-197.804 -312.813)"/></g></g></svg>