<svg xmlns="http://www.w3.org/2000/svg" width="24" height="24" viewBox="0 0 24 24"><defs><style>.a{fill:none;}.b{fill:#8e8e93;}</style></defs><g transform="translate(19348 -6602)"><g transform="translate(-171 391)"><rect class="a" width="24" height="24" transform="translate(-19177 6211)"/><g transform="translate(-19173 6216)"><path class="b" d="M31.287,16H16.463a.441.441,0,0,0-.463.412V29.588a.441.441,0,0,0,.463.412H31.287a.441.441,0,0,0,.463-.412V16.412A.441.441,0,0,0,31.287,16Zm-.463.824V21.95l-2.2-2.121A.481.481,0,0,0,28,19.788l-5,3.624L21.42,21.888a.55.55,0,0,0-.533-.1l-3.961,1.688v-6.65Zm-13.9,7.556,4.053-1.709L27.7,29.176H16.926Zm12.021,4.8-5.3-5.147,4.609-3.335,2.594,2.471v6.012Z" transform="translate(-16 -16)"/><path class="b" d="M41.737,29.658A1.831,1.831,0,1,0,40,27.829,1.8,1.8,0,0,0,41.737,29.658Zm0-2.682a.855.855,0,1,1-.811.853A.843.843,0,0,1,41.737,26.975Z" transform="translate(-34.442 -23.561)"/></g></g></g></svg>