<svg xmlns="http://www.w3.org/2000/svg" width="16" height="19" viewBox="0 0 16 19"><defs><style>.a{fill:#8e8e93;}</style></defs><path class="a" d="M10.714,20.765h4.571a2.286,2.286,0,0,1-4.571,0ZM21,17.971a1.7,1.7,0,0,1-1.714,1.676H6.714a1.677,1.677,0,1,1,0-3.353h.571V11.824a5.621,5.621,0,0,1,4.571-5.475V5.118a1.143,1.143,0,0,1,2.286,0v1.23a5.622,5.622,0,0,1,4.571,5.476v4.471h.571A1.7,1.7,0,0,1,21,17.971Zm-1.143,0a.566.566,0,0,0-.571-.559H17.571V11.824a4.573,4.573,0,0,0-9.143,0v5.588H6.714a.559.559,0,1,0,0,1.118H19.286A.566.566,0,0,0,19.857,17.971Z" transform="translate(-5 -4)"/></svg>