<svg xmlns="http://www.w3.org/2000/svg" width="47" height="47" viewBox="0 0 47 47"><defs><style>.a{fill:#f0f0f0;}.b{fill:#7b72af;}</style></defs><circle class="a" cx="23.5" cy="23.5" r="23.5"/><g transform="translate(15 12)"><path class="b" d="M81.5,9H80V7A7,7,0,1,0,66,7V9H64.5a.5.5,0,0,0-.5.5V22a2,2,0,0,0,2,2H80a2,2,0,0,0,2-2V9.5A.5.5,0,0,0,81.5,9Zm-7,10.445A.5.5,0,0,1,74,20H72a.5.5,0,0,1-.5-.555l.315-2.836A1.978,1.978,0,0,1,71,15a2,2,0,0,1,4,0,1.978,1.978,0,0,1-.818,1.608ZM77,9H69V7a4,4,0,1,1,8,0Z" transform="translate(-64)"/></g></svg>