<svg xmlns="http://www.w3.org/2000/svg" width="18.145" height="18" viewBox="0 0 18.145 18">
  <g id="Edit" transform="translate(0.5 0.5)">
    <path id="Path_2291" data-name="Path 2291" d="M15.69,48.185a.424.424,0,0,0-.423.426v3.778A1.275,1.275,0,0,1,14,53.665H2.117a1.275,1.275,0,0,1-1.27-1.277V41.3a1.275,1.275,0,0,1,1.27-1.277H5.876a.426.426,0,0,0,0-.851H2.117A2.125,2.125,0,0,0,0,41.3V52.388a2.125,2.125,0,0,0,2.117,2.128H14a2.125,2.125,0,0,0,2.117-2.128V48.61A.424.424,0,0,0,15.69,48.185Zm0,0" transform="translate(0 -37.516)" fill="#7b72af" stroke="#aeaeb2" stroke-width="1"/>
    <path id="Path_2292" data-name="Path 2292" d="M119.555.822a1.9,1.9,0,0,0-2.694,0l-7.553,7.592a.426.426,0,0,0-.109.187l-.993,3.6a.427.427,0,0,0,.108.415.422.422,0,0,0,.412.109l3.586-1a.423.423,0,0,0,.186-.109l7.553-7.592a1.924,1.924,0,0,0,0-2.708ZM110.23,8.69l6.182-6.213,1.994,2-6.182,6.213Zm-.4.8,1.593,1.6-2.2.614Zm9.622-6.066L119,3.879l-1.994-2,.449-.451a1.055,1.055,0,0,1,1.5,0l.5.5A1.069,1.069,0,0,1,119.453,3.427Zm0,0" transform="translate(-103.609 -0.261)" fill="#7b72af" stroke="#aeaeb2" stroke-width="1"/>
  </g>
</svg>
