<svg xmlns="http://www.w3.org/2000/svg" width="19.1" height="12.533" viewBox="0 0 19.1 12.533"><defs><style>.a{fill:#8e8e93;stroke:#8e8e93;stroke-width:0.2px;}</style></defs><g transform="translate(0.1 0.1)"><g transform="translate(0)"><path class="a" d="M1.454,283.242a.907.907,0,0,0-.635.257.308.308,0,0,0,.014.453l8.745,7.54a.308.308,0,0,0,.4,0l7.511-6.475a.308.308,0,1,0-.4-.467l-7.31,6.3-8.111-6.993H18.1a.3.3,0,0,1,.308.308v10.427L13.2,290.1a.308.308,0,1,0-.4.467l5.094,4.391H1.667l5.094-4.391a.308.308,0,0,0-.216-.544.305.305,0,0,0-.187.078l-5.213,4.494v-9.5a.308.308,0,1,0-.617,0v9.558a.93.93,0,0,0,.925.925H18.1a.93.93,0,0,0,.925-.925V284.167a.93.93,0,0,0-.925-.925Z" transform="translate(-0.529 -283.242)"/></g></g></svg>