<svg xmlns="http://www.w3.org/2000/svg" width="16" height="19" viewBox="0 0 16 19">
  <g id="move_icon" data-name="move icon" transform="translate(-966 -134)">
    <path id="Path_5079" data-name="Path 5079" d="M-3253.458-16591.9l1.746,1.76h6.166a1.986,1.986,0,0,1,1.224.42,2.156,2.156,0,0,1,.434,1.258v9.387a1.761,1.761,0,0,1-.407,1.121,2.064,2.064,0,0,1-1.208.355h-12.954a1.7,1.7,0,0,1-1.075-.371,1.762,1.762,0,0,1-.305-1.105v-11.064a2.735,2.735,0,0,1,.362-1.33,1.392,1.392,0,0,1,1.018-.43Z" transform="translate(4225.838 16728.189)" fill="#7b72af"/>
    <path id="Path_5081" data-name="Path 5081" d="M-1212.5-16644.426l-1.572-1.674,4.851.527-.436,4.031-1.431-1.648a5.2,5.2,0,0,0-2.394,1.648,12.909,12.909,0,0,0-1.739,3.441,12.9,12.9,0,0,1,.719-4.008A5.184,5.184,0,0,1-1212.5-16644.426Z" transform="translate(-3297.817 16274.835) rotate(19)" fill="#fff"/>
    <path id="Path_5082" data-name="Path 5082" d="M0,0H16V19H0Z" transform="translate(966 134)" fill="none"/>
  </g>
</svg>
