<svg xmlns="http://www.w3.org/2000/svg" width="59.994" height="55.453" viewBox="0 0 59.994 55.453">
  <g id="icon" transform="translate(-1.518 -1.098)">
    <path id="Path_5078" data-name="Path 5078" d="M-3266.962-16580.8v39.25a3.793,3.793,0,0,0,.553,2.344,3.258,3.258,0,0,0,2.159.758h44.3" transform="translate(3269.5 16594)" fill="none" stroke="#1c1c1e" stroke-width="2"/>
    <path id="Path_5079" data-name="Path 5079" d="M-3239.5-16591.9l5.568,5.568h19.657s2.581-.01,3.9,1.313,1.384,3.975,1.384,3.975v29.645s-.01,2.373-1.3,3.541-3.849,1.127-3.849,1.127h-41.3s-2.326,0-3.426-1.168-.974-3.5-.974-3.5v-34.932s.055-2.822,1.155-4.215a4.457,4.457,0,0,1,3.245-1.354Z" transform="translate(3269.5 16594)" fill="none" stroke="#1c1c1e" stroke-width="2"/>
    <path id="Path_5080" data-name="Path 5080" d="M-3252-16555.6h35.134l-8.667-12.934-6.667,8.266-8.6-12.066Z" transform="translate(3269.5 16594)" fill="none" stroke="#1c1c1e" stroke-width="2"/>
  </g>
</svg>
