<svg xmlns="http://www.w3.org/2000/svg" width="24" height="24" viewBox="0 0 24 24"><defs><style>.a{fill:none;}.b{fill:#ffffff;}</style></defs><rect class="a" width="24" height="24"/><g transform="translate(-154.5 -276)"><path class="b" d="M24.73,44.5h-10c-.67,0-1.228.409-1.228.9h0c0,.491.558.9,1.228.9H24.753c.67,0,1.228-.409,1.228-.9h0C25.958,44.893,25.422,44.5,24.73,44.5Z" transform="translate(145 242.533)"/><path class="b" d="M28.637,13H14.728c-.67,0-1.228.409-1.228.9h0c0,.491.558.9,1.228.9H28.66c.67,0,1.228-.409,1.228-.9h0A1.138,1.138,0,0,0,28.637,13Z" transform="translate(145 267)"/><path class="b" d="M28.637,75.9H14.728c-.67,0-1.228.409-1.228.9h0c0,.491.558.9,1.228.9H28.66c.67,0,1.228-.409,1.228-.9h0A1.138,1.138,0,0,0,28.637,75.9Z" transform="translate(145 218.143)"/></g></svg>