<svg xmlns="http://www.w3.org/2000/svg" width="14.502" height="20" viewBox="0 0 14.502 20"><defs><style>.a{fill:#8e8e93;}</style></defs><g transform="translate(-10 -39.005)"><g transform="translate(10 39.006)"><path class="a" d="M28.251,962.368A7.259,7.259,0,0,0,21,969.619a6.482,6.482,0,0,0,1.149,3.665l5.68,8.853a.5.5,0,0,0,.844,0l5.68-8.853a6.482,6.482,0,0,0,1.149-3.665A7.259,7.259,0,0,0,28.251,962.368Zm0,1a6.243,6.243,0,0,1,6.251,6.251,5.342,5.342,0,0,1-.992,3.126l-5.259,8.2-5.259-8.2A5.342,5.342,0,0,1,22,969.619,6.243,6.243,0,0,1,28.251,963.368Zm0,2.75a3.5,3.5,0,1,0,3.5,3.5A3.508,3.508,0,0,0,28.251,966.118Zm0,1a2.5,2.5,0,1,1-2.5,2.5A2.493,2.493,0,0,1,28.251,967.118Z" transform="translate(-21 -962.368)"/></g></g></svg>