<svg xmlns="http://www.w3.org/2000/svg" xmlns:xlink="http://www.w3.org/1999/xlink" width="103.414" height="107.676" viewBox="0 0 103.414 107.676"><defs><style>.a,.b{fill:none;}.a,.c,.e{clip-rule:evenodd;}.c,.d{fill:#ffd7b7;}.e,.f{fill:#ffe66f;}.g{clip-path:url(#a);}.h{isolation:isolate;}.i{clip-path:url(#b);}.j{clip-path:url(#c);}.k{clip-path:url(#d);}.l{fill:#100300;}.m{clip-path:url(#e);}.n{clip-path:url(#f);}.o{clip-path:url(#g);}.p{fill:#dba78d;}.q{clip-path:url(#i);}.r{fill:#f2b699;}.s{clip-path:url(#k);}.t{fill:#d4a289;}.u{clip-path:url(#m);}.v{clip-path:url(#o);}.w{clip-path:url(#q);}.x{clip-path:url(#s);}.y{clip-path:url(#u);}.z{clip-path:url(#v);}.aa{clip-path:url(#w);}.ab{fill:#2d2018;}.ac{clip-path:url(#y);}.ad{clip-path:url(#aa);}.ae{clip-path:url(#ac);}.af{fill:#03756f;}.ag{fill:#54a39b;}.ah{fill:#017d70;}.ai{fill:#d7ecef;}.aj{opacity:0.44;}</style><clipPath id="a"><path class="a" d="M95.715-753.016a47.564,47.564,0,0,1-47.564,47.564A47.564,47.564,0,0,1,.586-753.016a47.565,47.565,0,0,1,47.565-47.565,47.565,47.565,0,0,1,47.564,47.565" transform="translate(-0.586 800.581)"/></clipPath><clipPath id="b"><rect class="b" width="75.92" height="86.134"/></clipPath><clipPath id="c"><path class="a" d="M168.71-514.833c-.266.391-1.083,33.468,4.73,40.24h32.9s8.985-25.394,2.865-40.24H168.71" transform="translate(-168.514 514.833)"/></clipPath><clipPath id="d"><path class="b" d="M103-674.36h79.578V-764H103Z" transform="translate(-103 764)"/></clipPath><clipPath id="e"><path class="c" d="M256.292-383.3h18.215v-12.274H256.292Z" transform="translate(-256.292 395.571)"/></clipPath><clipPath id="f"><path class="d" d="M103-674.36h79.578V-764H103Z" transform="translate(-103 764)"/></clipPath><clipPath id="g"><path class="a" d="M269.569-384.921h-.148a24.5,24.5,0,0,1-8.711-1.772,15.222,15.222,0,0,1-4.418-2.529v-6.348h18.215v10.156a28.555,28.555,0,0,1-4.938.494" transform="translate(-256.292 395.571)"/></clipPath><clipPath id="i"><path class="a" d="M439.456-556.26c.062-.452.829-1.187,1.163-1.435a1.1,1.1,0,0,1,1.721.735,9.415,9.415,0,0,1,.261,2.038,8.964,8.964,0,0,1-.867,4.7,6.3,6.3,0,0,1-2.167,2.4.774.774,0,0,1-1.174-.633l1.063-7.8" transform="translate(-438.392 557.917)"/></clipPath><clipPath id="k"><path class="a" d="M440.114-547.217c.044-.324.593-.85.832-1.027.536-.4,1.075.011,1.232.526a6.7,6.7,0,0,1,.186,1.458,6.443,6.443,0,0,1-.621,3.363,4.529,4.529,0,0,1-1.551,1.714.554.554,0,0,1-.841-.453l.762-5.581" transform="translate(-439.352 548.403)"/></clipPath><clipPath id="m"><path class="a" d="M166.034-556.26c-.062-.452-.829-1.187-1.164-1.435-.747-.554-1.5.016-1.72.735a9.3,9.3,0,0,0-.261,2.038,8.989,8.989,0,0,0,.866,4.7,6.3,6.3,0,0,0,2.168,2.4.774.774,0,0,0,1.174-.633l-1.063-7.8" transform="translate(-162.863 557.917)"/></clipPath><clipPath id="o"><path class="a" d="M172.065-547.217c-.044-.324-.592-.85-.833-1.027a.79.79,0,0,0-1.231.526,6.88,6.88,0,0,0-.188,1.458,6.444,6.444,0,0,0,.622,3.363,4.517,4.517,0,0,0,1.551,1.714.555.555,0,0,0,.841-.453l-.763-5.581" transform="translate(-169.795 548.403)"/></clipPath><clipPath id="q"><path class="c" d="M223.406-687.967a30.886,30.886,0,0,1-3.313,14.792,29.469,29.469,0,0,1-8.714,9.5c-2.769,2.019-5.741,4.37-9.244,4.084-3.656-.3-6.5-3.415-9.172-5.845a31.783,31.783,0,0,1-8.544-12.659,29.254,29.254,0,0,1-1.643-9.868c0-16.623,9.1-27.079,20.315-27.079s20.315,10.456,20.315,27.079" transform="translate(-182.776 715.046)"/></clipPath><clipPath id="s"><path class="c" d="M133.054-311.665,113.276-317.6H97.406l-19.779,5.936s-9.166,3.9-10.184,16.235h75.8c-1.018-12.337-10.184-16.235-10.184-16.235" transform="translate(-67.443 317.601)"/></clipPath><clipPath id="u"><path class="e" d="M133.054-296.91l-10.938-3.282L105.34-283.429,88.515-300.178,77.627-296.91s-9.166,3.9-10.184,16.235h75.8c-1.018-12.337-10.184-16.235-10.184-16.235" transform="translate(-67.443 300.192)"/></clipPath><clipPath id="v"><path class="f" d="M103-674.36h79.578V-764H103Z" transform="translate(-103 764)"/></clipPath><clipPath id="w"><path class="a" d="M225.6-722.753s9.783,15.516,34.038,18.155c0,0,4.59-17.675-12.469-26.269,0,0-13.055-5.388-21.569,8.115" transform="translate(-225.6 731.929)"/></clipPath><clipPath id="y"><path class="a" d="M190.41-699.439s-6.317,4.087-9.06,15.495c0,0-2.939-21.5,12.265-24.18l-3.206,8.685" transform="translate(-181.122 708.124)"/></clipPath><clipPath id="aa"><path class="a" d="M383.671-657.054s6.511,41.412-3.776,53.132c0,0,13.153-1.953,13.8-20.055,0,0,2.344-36.984-6.557-49.747l-3.47,16.67" transform="translate(-379.894 673.724)"/></clipPath><clipPath id="ac"><path class="a" d="M157.051-631.84s-15.142-1.795-10.975-48.365c0,0,1.042-25.863,16.187-26.459l-.876,9.813s-8.7,2.592-7.58,23.058c0,0-.886,32.967,3.244,41.952" transform="translate(-145.351 706.663)"/></clipPath></defs><g transform="translate(-216 -194.947)"><g class="g" transform="translate(216 194.947)"><g class="h" transform="translate(10.125 9.693)"><g class="i" transform="translate(0 0)"><g class="j" transform="translate(15.476 33.869)"><g class="k" transform="translate(-9.988 -37.985)"><path class="l" d="M163.514-519.833h44.349v41.765H163.514Z" transform="translate(-154.289 557.056)"/></g></g><g class="m" transform="translate(28.857 52.051)"><g class="n" transform="translate(-23.369 -56.167)"><path class="d" d="M251.292-400.571h19.74v13.8h-19.74Z" transform="translate(-228.685 455.975)"/></g></g><g class="o" transform="translate(28.857 52.051)"><g class="k" transform="translate(-23.369 -56.167)"><path class="p" d="M251.292-400.571h19.74V-388.4h-19.74Z" transform="translate(-228.685 455.975)"/></g></g><g class="q" transform="translate(56.618 27.301)"><g class="k" transform="translate(-51.13 -31.417)"><path class="r" d="M433.392-562.917h5.76V-551.2h-5.76Z" transform="translate(-383.024 593.572)"/></g></g><g class="s" transform="translate(56.765 28.752)"><g class="k" transform="translate(-51.277 -32.868)"><path class="t" d="M434.352-553.4h4.555v8.82h-4.555Z" transform="translate(-383.838 585.508)"/></g></g><g class="u" transform="translate(14.614 27.301)"><g class="k" transform="translate(-9.126 -31.417)"><path class="r" d="M157.863-562.917h5.759V-551.2h-5.759Z" transform="translate(-149.499 593.572)"/></g></g><g class="v" transform="translate(15.671 28.752)"><g class="k" transform="translate(-10.183 -32.868)"><path class="t" d="M164.8-553.4h4.557v8.82H164.8Z" transform="translate(-155.375 585.508)"/></g></g><g class="w" transform="translate(17.65 3.347)"><g class="n" transform="translate(-12.162 -7.463)"><path class="d" d="M177.776-720.046H219.93v57H177.776Z" transform="translate(-166.376 726.746)"/></g></g><g class="x" transform="translate(0.067 63.937)"><g class="n" transform="translate(5.421 -68.053)"><path class="d" d="M62.443-322.6h77.32v23.695H62.443Z" transform="translate(-68.626 389.892)"/></g></g><g class="y" transform="translate(0.067 66.591)"><g class="z" transform="translate(5.421 -70.707)"><path class="f" d="M62.443-305.192h77.32v21.041H62.443Z" transform="translate(-68.626 375.137)"/></g></g><g class="aa" transform="translate(24.178 0.773)"><g class="k" transform="translate(-18.69 -4.889)"><path class="ab" d="M220.6-736.929h36.124v28.855H220.6Z" transform="translate(-202.672 741.056)"/></g></g><g class="ac" transform="translate(17.398 4.402)"><g class="k" transform="translate(-11.91 -8.518)"><path class="ab" d="M176.122-713.124H190.14v25.7H176.122Z" transform="translate(-164.974 720.88)"/></g></g><g class="ad" transform="translate(47.7 9.646)"><g class="k" transform="translate(-42.212 -13.763)"><path class="ab" d="M374.894-678.724H390.5V-607.4H374.894Z" transform="translate(-333.444 691.724)"/></g></g><g class="ae" transform="translate(11.944 4.625)"><g class="k" transform="translate(-6.456 -8.741)"><path class="ab" d="M140.351-711.663h18.437v76.348H140.351Z" transform="translate(-134.657 719.642)"/></g></g></g></g></g><g transform="matrix(0.719, 0.695, -0.695, 0.719, 1175.418, 27343.023)"><g transform="matrix(0.454, 0.891, -0.891, 0.454, -19427.717, -18885.723)"><path class="af" d="M25.924,31.336c-.049-4.709-3.981-13.208-7.459-18.022a1.694,1.694,0,0,1-2.473-1.752l-2.855-2.12a.689.689,0,0,0-.257-.139.9.9,0,0,0-.4.056,1.543,1.543,0,0,1-1.761-2.179l-2.648-2a.923.923,0,0,0-.426-.217,1.513,1.513,0,0,0-.634.178,1.239,1.239,0,0,1-1.547-.892A2.5,2.5,0,0,0,5.337,3.6a1.221,1.221,0,0,0-.294-.34L2.414.886A2.541,2.541,0,0,0,.656,0,.745.745,0,0,0,.132.239c-.244.294-.1.733.046,1.084L2.169,5.968a.679.679,0,0,0,.133.226.86.86,0,0,0,.5.158A1.831,1.831,0,0,1,4.261,8.5a1.159,1.159,0,0,0-.069.517.868.868,0,0,0,.166.307L7.913,14.2a.984.984,0,0,0,.317.318,1.325,1.325,0,0,0,.837-.03,1.965,1.965,0,0,1,2.162,2.7,1.079,1.079,0,0,0-.149.52.843.843,0,0,0,.192.387c3.7,5.016,8.852,10.63,14.461,13.343" transform="translate(0 0)"/><g transform="translate(0.479 0.436)"><path class="ag" d="M.186.036C3.745,4.051,7.21,8.182,10.96,12.022,14.5,15.645,18.2,19.078,21.031,23.316c1.625,2.436,3.021,5.013,4.415,7.585a.109.109,0,0,1-.191.105c-1.232-2.274-2.465-4.55-3.858-6.731a44.237,44.237,0,0,0-4.786-6.187c-1.693-1.836-3.492-3.569-5.248-5.345-1.8-1.823-3.51-3.731-5.211-5.649L.028.187C-.065.082.093-.069.186.036Z" transform="translate(0 0)"/></g></g><g transform="translate(-19443.924 -18872.984)"><path class="ah" d="M230.441,260.251c1.694,1.121,4.868.972,7.032-.064a11.469,11.469,0,0,0,2.317-1.6c7.417-6.152,13.613-14.206,15.838-23.583a13.37,13.37,0,0,0,.45-4.1,2.01,2.01,0,0,0-2.774-2.046,14.138,14.138,0,0,0-4.528,1.914,83.789,83.789,0,0,0-10.114,6.916c-1.214.967-2.4,1.97-3.517,3.049a39.317,39.317,0,0,0-3.446,3.83,18.8,18.8,0,0,0-2.18,3.281,11.811,11.811,0,0,0,.922,12.4" transform="translate(-228.198 -228.795)"/><g transform="translate(2.196 5.384)"><path class="ag" d="M234.651,270.5a116.407,116.407,0,0,1,7.227-10.748c2.709-3.447,5.877-6.53,8.9-9.7l5.171-5.432c.092-.1.245.043.153.139l-9.067,9.526c-1.5,1.572-3,3.139-4.369,4.821-1.4,1.713-2.689,3.512-3.919,5.349-1.35,2.016-2.629,4.079-3.907,6.141-.07.113-.254.019-.184-.094Z" transform="translate(-234.635 -244.581)"/></g><g transform="translate(5.995 20.202)"><path class="ag" d="M245.87,293.228c4.631.054,8.8-2.362,12.31-5.18.1-.083.213.092.111.175-3.533,2.838-7.747,5.265-12.411,5.211-.133,0-.143-.208-.01-.206Z" transform="translate(-245.775 -288.026)"/></g><g transform="translate(10.719 10.656)"><path class="ag" d="M259.7,268.4a24.122,24.122,0,0,0,12.9-8.322c.083-.1.235.036.152.139a24.308,24.308,0,0,1-12.988,8.38c-.128.033-.191-.165-.061-.2Z" transform="translate(-259.624 -260.039)"/></g><g transform="translate(14.003 6.351)"><path class="ag" d="M269.259,256.417a24.228,24.228,0,0,1,5-8.968c.088-.1.241.04.153.14a23.973,23.973,0,0,0-4.955,8.872c-.039.126-.241.084-.2-.043Z" transform="translate(-269.254 -247.414)"/></g><g transform="translate(8.509 11.22)"><path class="ag" d="M253.145,272.184c.368-3.88,2.394-7.3,4.56-10.446.075-.108.26-.015.184.094-2.157,3.131-4.176,6.532-4.542,10.4-.013.132-.215.088-.2-.043Z" transform="translate(-253.144 -261.69)"/></g><g transform="translate(4.277 17.982)"><path class="ag" d="M241.273,290.983c-.508-.009-.445-1.187-.475-1.531a15.27,15.27,0,0,1,0-2.676,15.5,15.5,0,0,1,1.394-5.2c.056-.121.24-.027.184.094a15.157,15.157,0,0,0-1.426,6.7c0,.252.046,2.4.318,2.41.132,0,.143.209.009.206Z" transform="translate(-240.737 -281.516)"/></g></g><g transform="translate(-19462.332 -18888.313)"><path class="ai" d="M95.989,190.74a18.893,18.893,0,0,0,5.666-17.284,11.064,11.064,0,0,1-3.689,2.385,11.13,11.13,0,0,1,.164-4.314,5.215,5.215,0,0,0,.264-1.867,4.12,4.12,0,0,0-.984-1.891,75.022,75.022,0,0,0-5.85-6.681c-.307-.311-.709-.646-1.13-.526-.457.132-.6.695-.711,1.157a6.491,6.491,0,0,1-1.917,3.218c-2.005-2.041-1.349-5.565-2.906-7.966a9.509,9.509,0,0,0-2.038-2.073q-4.215-3.465-8.675-6.615a3.212,3.212,0,0,0-2.3-.834,84.718,84.718,0,0,1,2.855,21.425,3.861,3.861,0,0,0,.263,1.711,3.769,3.769,0,0,0,1.146,1.211l5.65,4.42-3.883-.518a.636.636,0,0,0-.47.059c-.2.148-.156.45-.094.688,1.21,4.685,2.721,9.8,6.781,12.434,3.41,2.211,7.772,2.09,11.831,1.892" transform="translate(-71.888 -147.422)"/><g transform="translate(5.019 8.586)"><path class="ag" d="M105.7,207.6c-2.024-6.26-5.665-11.863-8.967-17.5L86.626,172.834c-.113-.193.2-.341.314-.149l10.111,17.265c3.3,5.64,6.943,11.243,8.967,17.5.068.21-.246.362-.314.149Z" transform="translate(-86.602 -172.595)"/></g></g><g class="aj" transform="translate(-19469.699 -18864.834)"><path class="af" d="M60.289,280.679c-1.257-4.538-7.239-11.742-11.837-15.5a1.694,1.694,0,0,1-2.84-1.059l-3.3-1.316a.691.691,0,0,0-.284-.069.9.9,0,0,0-.372.157,1.543,1.543,0,0,1-2.261-1.654l-3.072-1.251a.926.926,0,0,0-.468-.1,1.513,1.513,0,0,0-.567.335,1.239,1.239,0,0,1-1.724-.465,2.511,2.511,0,0,0-.291-.6,1.223,1.223,0,0,0-.371-.253l-3.15-1.616a2.543,2.543,0,0,0-1.925-.4.746.746,0,0,0-.446.362c-.16.347.088.735.323,1.035l3.116,3.979a.68.68,0,0,0,.187.184.86.86,0,0,0,.527.023,1.832,1.832,0,0,1,1.959,1.7,1.156,1.156,0,0,0,.066.517.876.876,0,0,0,.239.255l4.687,3.8a.986.986,0,0,0,.388.226,1.323,1.323,0,0,0,.8-.244,1.965,1.965,0,0,1,2.784,2.058,1.075,1.075,0,0,0-.01.541.838.838,0,0,0,.285.325c4.861,3.9,11.284,8,17.4,9.182" transform="translate(-27.326 -256.81)"/><g transform="translate(0.463 0.506)"><path class="ag" d="M28.846,258.313c4.471,2.967,8.881,6.07,13.491,8.819,4.349,2.593,8.812,4.96,12.633,8.329,2.2,1.937,4.207,4.069,6.214,6.2.1.1-.061.253-.158.151-1.775-1.881-3.551-3.765-5.457-5.515a44.248,44.248,0,0,0-6.214-4.75c-2.107-1.34-4.291-2.553-6.444-3.818-2.211-1.3-4.351-2.7-6.487-4.122l-7.692-5.1c-.117-.078,0-.264.114-.187Z" transform="translate(-28.684 -258.295)"/></g></g></g></g></svg>