<svg xmlns="http://www.w3.org/2000/svg" width="71.222" height="57" viewBox="0 0 71.222 57">
  <g id="outline" transform="translate(-24.777 -38)">
    <g id="Rectangle_1824" data-name="Rectangle 1824" transform="translate(46.998 38)" fill="#fff" stroke="#707070" stroke-width="1">
      <rect width="49" height="57" stroke="none"/>
      <rect x="0.5" y="0.5" width="48" height="56" fill="none"/>
    </g>
    <path id="Path_5062" data-name="Path 5062" d="M193.719,210.312h6.875a1.719,1.719,0,0,0,1.719-1.719v-6.875A1.719,1.719,0,0,0,200.594,200h-6.875A1.719,1.719,0,0,0,192,201.719v6.875A1.719,1.719,0,0,0,193.719,210.312Zm-.636-9.169h8.15v8.05h-8.15Z" transform="translate(-138.791 -152.368)" fill="#707070"/>
    <path id="Path_5065" data-name="Path 5065" d="M257.719,234h6.875c.949,0,1.719-.448,1.719-1s-.77-1-1.719-1h-6.875c-.949,0-1.719.448-1.719,1S256.77,234,257.719,234Z" transform="translate(-189.158 -177.703)" fill="#707070"/>
    <path id="Path_5066" data-name="Path 5066" d="M321.719,232c-.949,0-1.719.448-1.719,1s.769,1,1.719,1h5.156c.949,0,1.719-.448,1.719-1s-.77-1-1.719-1Z" transform="translate(-239.571 -177.703)" fill="#707070"/>
    <path id="Path_5067" data-name="Path 5067" d="M257.719,266h20.625c.949,0,1.719-.448,1.719-1s-.77-1-1.719-1H257.719c-.949,0-1.719.448-1.719,1S256.77,266,257.719,266Z" transform="translate(-189.32 -202.915)" fill="#707070"/>
    <path id="Path_5068" data-name="Path 5068" d="M257.719,202h20.625c.949,0,1.719-.448,1.719-1s-.77-1-1.719-1H257.719c-.949,0-1.719.448-1.719,1S256.77,202,257.719,202Z" transform="translate(-189.32 -152.368)" fill="#707070"/>
    <path id="Path_5069" data-name="Path 5069" d="M257.719,298h13.75c.949,0,1.719-.448,1.719-1s-.769-1-1.719-1h-13.75c-.949,0-1.719.448-1.719,1S256.77,298,257.719,298Z" transform="translate(-189.206 -228.128)" fill="#707070"/>
    <path id="Path_5070" data-name="Path 5070" d="M257.719,330h6.875c.949,0,1.719-.448,1.719-1s-.77-1-1.719-1h-6.875c-.949,0-1.719.448-1.719,1S256.77,330,257.719,330Z" transform="translate(-189.158 -253.34)" fill="#707070"/>
    <path id="Path_5071" data-name="Path 5071" d="M326.875,328h-5.156c-.949,0-1.719.448-1.719,1s.769,1,1.719,1h5.156c.949,0,1.719-.448,1.719-1S327.824,328,326.875,328Z" transform="translate(-239.571 -253.34)" fill="#707070"/>
    <path id="Path_5072" data-name="Path 5072" d="M257.719,362h13.75c.949,0,1.719-.448,1.719-1s-.769-1-1.719-1h-13.75c-.949,0-1.719.448-1.719,1S256.77,362,257.719,362Z" transform="translate(-189.206 -278.553)" fill="#707070"/>
    <path id="pencil" d="M.109,21.2l3.9,3.9a.371.371,0,0,0,.525,0L22.564,7.076a.35.35,0,0,0,.025-.031c.006-.007.011-.013.017-.02a.37.37,0,0,0,.041-.074l1.467-3.725h0L25.185.508A.371.371,0,0,0,24.7.026L21.987,1.1,18.263,2.566a.376.376,0,0,0-.074.041l-.021.017-.031.025L5.044,15.74.11,20.675a.371.371,0,0,0,0,.526Zm5.2-4.673L8.683,19.9,7.626,20.962,4.25,17.586ZM18.4,3.437l.742.742L6.574,16.746,5.832,16Zm2.109,2.109L7.939,18.112,7.1,17.272,19.666,4.7Zm1.268,1.268L9.208,19.38l-.742-.742L21.032,6.07Zm1.857-4.39-.843-.843,1.393-.549Zm-1.6-.547,1.3,1.3L22.162,6.151l-.867-.867L19.93,3.919l-.867-.867ZM3.725,18.109,7.1,21.486,4.273,24.315.9,20.939Z" transform="translate(60.431 67.606) rotate(135)" fill="#707070"/>
    <path id="Path_5079" data-name="Path 5079" d="M193.719,210.312h6.875a1.719,1.719,0,0,0,1.719-1.719v-6.875A1.719,1.719,0,0,0,200.594,200h-6.875A1.719,1.719,0,0,0,192,201.719v6.875A1.719,1.719,0,0,0,193.719,210.312Zm-.636-9.169h8.15v8.05h-8.15Z" transform="translate(-138.791 -139.368)" fill="#707070"/>
    <path id="Path_5080" data-name="Path 5080" d="M193.719,210.312h6.875a1.719,1.719,0,0,0,1.719-1.719v-6.875A1.719,1.719,0,0,0,200.594,200h-6.875A1.719,1.719,0,0,0,192,201.719v6.875A1.719,1.719,0,0,0,193.719,210.312Zm-.636-9.169h8.15v8.05h-8.15Z" transform="translate(-138.791 -152.368)" fill="#707070"/>
    <path id="Path_5081" data-name="Path 5081" d="M193.719,210.312h6.875a1.719,1.719,0,0,0,1.719-1.719v-6.875A1.719,1.719,0,0,0,200.594,200h-6.875A1.719,1.719,0,0,0,192,201.719v6.875A1.719,1.719,0,0,0,193.719,210.312Zm-.636-9.169h8.15v8.05h-8.15Z" transform="translate(-138.791 -125.368)" fill="#707070"/>
  </g>
</svg>
