<svg xmlns="http://www.w3.org/2000/svg" width="16" height="19.859" viewBox="0 0 16 19.859"><defs><style>.a{fill:#8e8e93;}.b{fill:none;stroke:#8e8e93;stroke-width:0.6px;}</style></defs><path class="a" d="M14.618,1.853A2.165,2.165,0,0,0,12.46,0H3.61A2.165,2.165,0,0,0,1.449,2.161V4.887H.389a.389.389,0,0,0,0,.779H3.115a.389.389,0,0,0,0-.779H2.227V2.161A1.386,1.386,0,0,1,3.61.779H12.46a1.386,1.386,0,0,1,1.4,1.382V16a1.386,1.386,0,0,1-1.4,1.382H3.61A1.386,1.386,0,0,1,2.227,16V13.27h.888a.389.389,0,0,0,0-.779H2.227v-.88a.389.389,0,0,0-.779,0v.88H.389a.389.389,0,0,0,0,.779H1.449V16a2.165,2.165,0,0,0,1.382,2.017,2.169,2.169,0,0,0,2.138,1.846h8.866A2.165,2.165,0,0,0,16,17.7V3.863a2.153,2.153,0,0,0-1.382-2.009Zm.6,15.844a1.386,1.386,0,0,1-1.386,1.382H4.969a1.382,1.382,0,0,1-1.3-.923H12.46A2.165,2.165,0,0,0,14.622,16V2.726A1.375,1.375,0,0,1,15.2,3.843Z" transform="translate(0 0)"/><path class="a" d="M1.838,15.81a.389.389,0,0,0-.389.389v.876H.389a.389.389,0,1,0,0,.779H3.115a.389.389,0,0,0,0-.779H2.227V16.2a.389.389,0,0,0-.389-.389Z" transform="translate(0 -9.654)"/><path class="a" d="M.389,24.364H3.115a.389.389,0,0,0,0-.779H2.227v-.876a.389.389,0,0,0-.779,0v.876H.389a.389.389,0,1,0,0,.779Z" transform="translate(0 -13.629)"/><g transform="translate(6 6)"><ellipse class="b" cx="1.713" cy="1.713" rx="1.713" ry="1.713" transform="translate(0.787)"/><path class="b" d="M29.774,74.839a2.044,2.044,0,0,1-1.957,0A3.321,3.321,0,0,0,26.3,77.668h5A3.32,3.32,0,0,0,29.774,74.839Z" transform="translate(-26.295 -71.172)"/></g></svg>