<svg xmlns="http://www.w3.org/2000/svg" xmlns:xlink="http://www.w3.org/1999/xlink" width="135.59" height="67.088" viewBox="0 0 135.59 67.088"><defs><style>.a,.d{fill:#7b72af;}.a{clip-rule:evenodd;}.b{opacity:0.3;}.c{clip-path:url(#a);}.e{clip-path:url(#b);}.f{clip-path:url(#c);}.g{clip-path:url(#d);}.h{clip-path:url(#e);}.i{clip-path:url(#f);}.j{clip-path:url(#g);}.k{clip-path:url(#h);}.l{clip-path:url(#i);}</style><clipPath id="a"><path class="a" d="M2849.693-1191.376h-21.832a1.52,1.52,0,0,0-1.521,1.52,1.521,1.521,0,0,0,1.521,1.521h21.832a1.52,1.52,0,0,0,1.52-1.521,1.52,1.52,0,0,0-1.52-1.52" transform="translate(-2826.34 1191.376)"/></clipPath><clipPath id="b"><path class="a" d="M732.2-1534.88a.663.663,0,0,0-.659.6.663.663,0,0,0,.6.723c.946.09,1.918.145,2.89.162a.664.664,0,0,0,.675-.652.664.664,0,0,0-.652-.675c-.937-.017-1.874-.069-2.787-.156A.567.567,0,0,0,732.2-1534.88Zm8.515-.149a.687.687,0,0,0-.083.005c-.929.115-1.867.2-2.786.25a.664.664,0,0,0-.626.7.662.662,0,0,0,.7.626c.949-.052,1.917-.139,2.877-.258a.663.663,0,0,0,.576-.74A.664.664,0,0,0,740.712-1535.029Zm-14.1-.861a.665.665,0,0,0-.64.489.664.664,0,0,0,.466.814c.919.251,1.872.465,2.831.637a.663.663,0,0,0,.77-.536.664.664,0,0,0-.536-.77c-.921-.165-1.835-.371-2.716-.612A.687.687,0,0,0,726.608-1535.89Zm19.686-.2a.656.656,0,0,0-.166.021c-.906.233-1.826.439-2.734.612a.663.663,0,0,0-.527.776.664.664,0,0,0,.776.527c.935-.179,1.882-.391,2.815-.63a.663.663,0,0,0,.477-.808A.663.663,0,0,0,746.294-1536.093Zm5.409-1.746a.661.661,0,0,0-.241.046c-.869.339-1.758.656-2.641.941a.663.663,0,0,0-.427.835.663.663,0,0,0,.835.427c.909-.294,1.822-.62,2.716-.969a.663.663,0,0,0,.376-.859A.662.662,0,0,0,751.7-1537.84Zm-30.411-.045a.665.665,0,0,0-.6.388.664.664,0,0,0,.329.879l.892.406c.574.26,1.166.506,1.762.731a.664.664,0,0,0,.855-.387.664.664,0,0,0-.387-.855c-.569-.215-1.135-.449-1.682-.7l-.89-.405A.665.665,0,0,0,721.292-1537.885Zm-47.527-1.141a.663.663,0,0,0-.658.589.663.663,0,0,0,.585.733,14.5,14.5,0,0,0,2.976.013.664.664,0,0,0,.6-.724.665.665,0,0,0-.724-.6,13.188,13.188,0,0,1-2.7-.01A.6.6,0,0,0,673.765-1539.026Zm83.1-1.191a.661.661,0,0,0-.312.079c-.821.438-1.665.858-2.511,1.248a.664.664,0,0,0-.326.88.664.664,0,0,0,.88.325c.87-.4,1.738-.832,2.582-1.283a.663.663,0,0,0,.272-.9A.664.664,0,0,0,756.865-1540.217Zm-40.744-.04a.664.664,0,0,0-.6.387.664.664,0,0,0,.326.879l1.774.815.81.372a.664.664,0,0,0,.88-.326.664.664,0,0,0-.327-.88l-.81-.373-1.775-.815A.655.655,0,0,0,716.121-1540.257Zm-34.166-.468a.659.659,0,0,0-.4.137,5.247,5.247,0,0,1-1.455.8c-.29.1-.587.194-.883.278a.663.663,0,0,0-.459.818.663.663,0,0,0,.818.459c.322-.091.645-.192.96-.3a6.569,6.569,0,0,0,1.824-.995.663.663,0,0,0,.124-.93A.664.664,0,0,0,681.955-1540.725Zm-12.973-.9a.661.661,0,0,0-.26.054.663.663,0,0,0-.35.87,4.509,4.509,0,0,0,2.376,2.224.663.663,0,0,0,.88-.325.664.664,0,0,0-.325-.88,3.23,3.23,0,0,1-1.711-1.539A.664.664,0,0,0,668.982-1541.624Zm41.958-.984a.664.664,0,0,0-.606.393.663.663,0,0,0,.336.876c.809.361,1.656.743,2.589,1.167a.664.664,0,0,0,.879-.33.664.664,0,0,0-.33-.878c-.936-.425-1.786-.807-2.6-1.17A.665.665,0,0,0,710.939-1542.607Zm50.769-.585a.662.662,0,0,0-.381.121c-.759.532-1.546,1.05-2.342,1.538a.664.664,0,0,0-.219.912.663.663,0,0,0,.913.219c.818-.5,1.63-1.035,2.41-1.583a.663.663,0,0,0,.162-.924A.662.662,0,0,0,761.709-1543.192Zm-55.989-1.678a.664.664,0,0,0-.612.407.664.664,0,0,0,.356.868c.829.347,1.707.721,2.608,1.113a.664.664,0,0,0,.873-.344.663.663,0,0,0-.345-.873c-.907-.394-1.79-.771-2.625-1.12A.661.661,0,0,0,705.72-1544.87Zm-20.63-.508a.663.663,0,0,0-.624.44,11.765,11.765,0,0,1-1.175,2.415.664.664,0,0,0,.2.918.663.663,0,0,0,.917-.2,13.047,13.047,0,0,0,1.309-2.687.663.663,0,0,0-.4-.849A.663.663,0,0,0,685.09-1545.378Zm-14.156-1.229a.661.661,0,0,0-.465.19,9.369,9.369,0,0,0-1.851,2.422.664.664,0,0,0,.3.89.664.664,0,0,0,.89-.3,8.072,8.072,0,0,1,1.594-2.069.663.663,0,0,0,.008-.938A.662.662,0,0,0,670.934-1546.607Zm95.213-.134a.658.658,0,0,0-.446.173c-.682.622-1.4,1.233-2.129,1.818a.663.663,0,0,0-.1.932.664.664,0,0,0,.933.1c.753-.6,1.492-1.232,2.195-1.874a.663.663,0,0,0,.043-.937A.66.66,0,0,0,766.147-1546.741Zm-65.712-.233a.664.664,0,0,0-.621.431.664.664,0,0,0,.388.854c.847.318,1.735.662,2.64,1.022a.662.662,0,0,0,.861-.37.663.663,0,0,0-.37-.862c-.913-.364-1.809-.711-2.665-1.032A.661.661,0,0,0,700.435-1546.975Zm-5.378-1.851a.664.664,0,0,0-.634.467.663.663,0,0,0,.437.83c.861.267,1.764.563,2.682.88a.664.664,0,0,0,.844-.411.664.664,0,0,0-.411-.843c-.931-.322-1.848-.623-2.722-.894A.66.66,0,0,0,695.057-1548.826Zm-19.487-1.024a.663.663,0,0,0-.266.056,12.726,12.726,0,0,0-2.163,1.2q-.211.146-.412.292a.663.663,0,0,0-.149.926.663.663,0,0,0,.926.149q.191-.138.392-.278a11.381,11.381,0,0,1,1.937-1.078.663.663,0,0,0,.342-.874A.663.663,0,0,0,675.57-1549.849Zm13.988-.429a.663.663,0,0,0-.648.526.662.662,0,0,0,.511.786c.875.186,1.794.406,2.732.656a.664.664,0,0,0,.812-.47.665.665,0,0,0-.471-.812c-.961-.255-1.9-.481-2.8-.671A.666.666,0,0,0,689.558-1550.278Zm80.518-.568a.661.661,0,0,0-.51.24c-.589.708-1.215,1.41-1.862,2.085a.663.663,0,0,0,.02.938.663.663,0,0,0,.938-.02c.669-.7,1.316-1.423,1.925-2.155a.663.663,0,0,0-.086-.934A.662.662,0,0,0,770.076-1550.846Zm-86.143-.224a.663.663,0,0,0-.662.625.663.663,0,0,0,.624.7c.475.027.965.068,1.466.121a16.968,16.968,0,0,1-.215,2.049.663.663,0,0,0,.545.764.663.663,0,0,0,.764-.545,18.09,18.09,0,0,0,.227-2.1.664.664,0,0,0,.736-.564.664.664,0,0,0-.562-.752l-.425-.059a.66.66,0,0,0-.387-.127.68.68,0,0,0-.251.048c-.625-.072-1.234-.125-1.822-.159Zm-2.841-.008h-.039a19.241,19.241,0,0,0-2.917.384.663.663,0,0,0-.51.788.663.663,0,0,0,.788.509,17.806,17.806,0,0,1,2.715-.356.664.664,0,0,0,.625-.7A.664.664,0,0,0,681.091-1551.079Zm92.279-4.4a.662.662,0,0,0-.569.321c-.474.788-.989,1.573-1.531,2.333a.664.664,0,0,0,.156.925.664.664,0,0,0,.925-.155c.562-.788,1.1-1.6,1.588-2.419a.664.664,0,0,0-.227-.911A.659.659,0,0,0,773.371-1555.474Zm-88.248-1.07a.672.672,0,0,0-.224.039.664.664,0,0,0-.4.849,14.762,14.762,0,0,1,.671,2.634.663.663,0,0,0,.76.55.663.663,0,0,0,.55-.76,16.11,16.11,0,0,0-.732-2.871A.663.663,0,0,0,685.123-1556.544Zm-3.027-4.749a.662.662,0,0,0-.483.208.663.663,0,0,0,.027.938,10.533,10.533,0,0,1,1.688,2.064.664.664,0,0,0,.915.208.663.663,0,0,0,.208-.915,11.911,11.911,0,0,0-1.9-2.323A.66.66,0,0,0,682.1-1561.294Zm-4.953-2.651a.664.664,0,0,0-.644.5.663.663,0,0,0,.486.8,10.876,10.876,0,0,1,2.5.943.664.664,0,0,0,.9-.275.664.664,0,0,0-.276-.9,12.186,12.186,0,0,0-2.8-1.059A.655.655,0,0,0,677.142-1563.944Zm-3.483-.4c-.412,0-.837.014-1.263.043-.312.021-.624.037-.928.048a.664.664,0,0,0-.639.687.665.665,0,0,0,.687.639c.317-.012.643-.028.968-.051a17.15,17.15,0,0,1,1.821-.027.664.664,0,0,0,.69-.636.663.663,0,0,0-.636-.69C674.13-1564.339,673.895-1564.344,673.659-1564.344Zm-7.815-.345a.663.663,0,0,0-.648.525.663.663,0,0,0,.51.788,21.16,21.16,0,0,0,2.9.4.663.663,0,0,0,.709-.614.664.664,0,0,0-.614-.709,19.709,19.709,0,0,1-2.718-.378A.679.679,0,0,0,665.844-1564.689Zm-5.2-2.177a.662.662,0,0,0-.545.285.663.663,0,0,0,.166.923,13.755,13.755,0,0,0,2.618,1.416.663.663,0,0,0,.866-.361.664.664,0,0,0-.362-.866,12.425,12.425,0,0,1-2.366-1.278A.66.66,0,0,0,660.643-1566.866Zm-3.734-4.214a.661.661,0,0,0-.312.078.663.663,0,0,0-.273.9,12.843,12.843,0,0,0,1.7,2.459.663.663,0,0,0,.936.058.664.664,0,0,0,.057-.937,11.5,11.5,0,0,1-1.526-2.205A.663.663,0,0,0,656.909-1571.079Zm-1.553-5.44h-.035a.663.663,0,0,0-.628.7,13.711,13.711,0,0,0,.518,2.953.663.663,0,0,0,.82.455.663.663,0,0,0,.455-.82,12.329,12.329,0,0,1-.468-2.656.664.664,0,0,0-.662-.629Z" transform="translate(-654.692 1576.519)"/></clipPath><clipPath id="c"><path class="a" d="M2070.608-1348.956l-2.148-3.519,18.494-12.618-16.345,16.137" transform="translate(-2068.46 1365.093)"/></clipPath><clipPath id="d"><path class="a" d="M2045.44-1263.807l1.119-4.036,18.459-3.778-19.579,7.813" transform="translate(-2045.44 1271.62)"/></clipPath><clipPath id="e"><path class="a" d="M1946.388-1344.419l-31.188,10.631,10.786,3.794,20.4-14.424" transform="translate(-1915.2 1344.419)"/></clipPath><clipPath id="f"><path class="a" d="M2094.4-1383.512l16.346-16.137-9.567,19-6.779-2.863" transform="translate(-2094.399 1399.649)"/></clipPath><clipPath id="g"><path class="a" d="M1447-1386.51a1.368,1.368,0,0,0-1.4,1.4,1.347,1.347,0,0,0,1.4,1.295,1.32,1.32,0,0,0,1.295-1.295A1.337,1.337,0,0,0,1447-1386.51Zm-1.887,9.186a3.594,3.594,0,0,0,2.232.7c1.873,0,2.864-1.019,2.864-2.452a3.663,3.663,0,0,0-1.212-2.507c-1.033-1.088-1.776-1.625-2.244-1.625a.776.776,0,0,0-.785.785c0,.385.358.771.977,1.336a.611.611,0,0,0,.11.1c.7.647.924,1.005.924,1.446a.818.818,0,0,1-.91.854,2.945,2.945,0,0,1-.881-.165,2.833,2.833,0,0,0-.744-.165.859.859,0,0,0-.827.881,1.042,1.042,0,0,0,.5.812Z" transform="translate(-1444.62 1386.51)"/></clipPath><clipPath id="h"><path class="a" d="M918.9-1855.089l-5.577-10.317a.808.808,0,0,0-1.1-.327l-17.93,9.691a.808.808,0,0,0-.326,1.1l5.576,10.317a.809.809,0,0,0,1.1.327l17.93-9.692a.808.808,0,0,0,.326-1.1" transform="translate(-893.879 1865.83)"/></clipPath><clipPath id="i"><path class="a" d="M979.788-1863.777l-.309-.57-11.341-1.452a2.574,2.574,0,0,0-2.695,1.427l-5.183,10.729.175.326a.81.81,0,0,0,1.1.327l17.928-9.691a.809.809,0,0,0,.328-1.1" transform="translate(-960.26 1865.827)"/></clipPath></defs><g class="b" transform="translate(0 0)"><g class="c" transform="translate(52.865 7.184)"><path class="d" d="M2821.34-1192.507h25.7v-3.869h-25.7Z" transform="translate(-2821.754 1195.962)"/></g><g class="e" transform="translate(0 0)"><path class="d" d="M649.692-1537.567h120.17v-43.953H649.692Z" transform="translate(-650.106 1581.106)"/></g><g class="f" transform="translate(117.094 9.478)"><path class="d" d="M2063.46-1353.128h19.322v-16.965H2063.46Z" transform="translate(-2063.874 1369.679)"/></g><g class="g" transform="translate(115.188 10.058)"><path class="d" d="M2040.44-1267.978h20.406v-8.641H2040.44Z" transform="translate(-2040.854 1276.206)"/></g><g class="h" transform="translate(104.4 9.478)"><path class="d" d="M1910.2-1334.166h32.016v-15.253H1910.2Z" transform="translate(-1910.614 1349.005)"/></g><g class="i" transform="translate(119.244 9.475)"><path class="d" d="M2089.4-1384.822h17.174v-19.827H2089.4Z" transform="translate(-2089.814 1404.235)"/></g><g class="j" transform="translate(65.424 17.496)"><path class="d" d="M1439.62-1380.793h6.42v-10.717h-6.42Z" transform="translate(-1440.034 1391.096)"/></g><g class="k" transform="translate(19.811 45.462)"><path class="d" d="M888.879-1848.376H914.83v-22.455H888.879Z" transform="translate(-889.293 1870.415)"/></g><g class="l" transform="translate(25.309 54.154)"><path class="d" d="M955.26-1857.065h20.453v-13.763H955.26Z" transform="translate(-955.674 1870.414)"/></g></g></svg>