<svg xmlns="http://www.w3.org/2000/svg" xmlns:xlink="http://www.w3.org/1999/xlink" width="98.787" height="95.129" viewBox="0 0 98.787 95.129"><defs><style>.a,.b{fill:none;}.a,.c,.e{clip-rule:evenodd;}.c,.d{fill:#ffd7b7;}.e,.f{fill:#ffe66f;}.g{clip-path:url(#a);}.h{isolation:isolate;}.i{clip-path:url(#b);}.j{clip-path:url(#c);}.k{clip-path:url(#d);}.l{fill:#100300;}.m{clip-path:url(#e);}.n{clip-path:url(#f);}.o{clip-path:url(#g);}.p{fill:#dba78d;}.q{clip-path:url(#i);}.r{fill:#f2b699;}.s{clip-path:url(#k);}.t{fill:#d4a289;}.u{clip-path:url(#m);}.v{clip-path:url(#o);}.w{clip-path:url(#q);}.x{clip-path:url(#s);}.y{clip-path:url(#u);}.z{clip-path:url(#v);}.aa{clip-path:url(#w);}.ab{fill:#2d2018;}.ac{clip-path:url(#y);}.ad{clip-path:url(#aa);}.ae{clip-path:url(#ac);}.af{fill:#fe9370;}.ag{fill:#ff7131;}.ah{fill:#02806b;}.ai{fill:#fff0d9;}.aj{fill:#dbcebb;}</style><clipPath id="a"><path class="a" d="M95.715-753.016a47.564,47.564,0,0,1-47.564,47.564A47.564,47.564,0,0,1,.586-753.016a47.565,47.565,0,0,1,47.565-47.565,47.565,47.565,0,0,1,47.564,47.565" transform="translate(-0.586 800.581)"/></clipPath><clipPath id="b"><rect class="b" width="75.92" height="86.134"/></clipPath><clipPath id="c"><path class="a" d="M168.71-514.833c-.266.391-1.083,33.468,4.73,40.24h32.9s8.985-25.394,2.865-40.24H168.71" transform="translate(-168.514 514.833)"/></clipPath><clipPath id="d"><path class="b" d="M103-674.36h79.578V-764H103Z" transform="translate(-103 764)"/></clipPath><clipPath id="e"><path class="c" d="M256.292-383.3h18.215v-12.274H256.292Z" transform="translate(-256.292 395.571)"/></clipPath><clipPath id="f"><path class="d" d="M103-674.36h79.578V-764H103Z" transform="translate(-103 764)"/></clipPath><clipPath id="g"><path class="a" d="M269.569-384.921h-.148a24.5,24.5,0,0,1-8.711-1.772,15.222,15.222,0,0,1-4.418-2.529v-6.348h18.215v10.156a28.555,28.555,0,0,1-4.938.494" transform="translate(-256.292 395.571)"/></clipPath><clipPath id="i"><path class="a" d="M439.456-556.26c.062-.452.829-1.187,1.163-1.435a1.1,1.1,0,0,1,1.721.735,9.415,9.415,0,0,1,.261,2.038,8.964,8.964,0,0,1-.867,4.7,6.3,6.3,0,0,1-2.167,2.4.774.774,0,0,1-1.174-.633l1.063-7.8" transform="translate(-438.392 557.917)"/></clipPath><clipPath id="k"><path class="a" d="M440.114-547.217c.044-.324.593-.85.832-1.027.536-.4,1.075.011,1.232.526a6.7,6.7,0,0,1,.186,1.458,6.443,6.443,0,0,1-.621,3.363,4.529,4.529,0,0,1-1.551,1.714.554.554,0,0,1-.841-.453l.762-5.581" transform="translate(-439.352 548.403)"/></clipPath><clipPath id="m"><path class="a" d="M166.034-556.26c-.062-.452-.829-1.187-1.164-1.435-.747-.554-1.5.016-1.72.735a9.3,9.3,0,0,0-.261,2.038,8.989,8.989,0,0,0,.866,4.7,6.3,6.3,0,0,0,2.168,2.4.774.774,0,0,0,1.174-.633l-1.063-7.8" transform="translate(-162.863 557.917)"/></clipPath><clipPath id="o"><path class="a" d="M172.065-547.217c-.044-.324-.592-.85-.833-1.027a.79.79,0,0,0-1.231.526,6.88,6.88,0,0,0-.188,1.458,6.444,6.444,0,0,0,.622,3.363,4.517,4.517,0,0,0,1.551,1.714.555.555,0,0,0,.841-.453l-.763-5.581" transform="translate(-169.795 548.403)"/></clipPath><clipPath id="q"><path class="c" d="M223.406-687.967a30.886,30.886,0,0,1-3.313,14.792,29.469,29.469,0,0,1-8.714,9.5c-2.769,2.019-5.741,4.37-9.244,4.084-3.656-.3-6.5-3.415-9.172-5.845a31.783,31.783,0,0,1-8.544-12.659,29.254,29.254,0,0,1-1.643-9.868c0-16.623,9.1-27.079,20.315-27.079s20.315,10.456,20.315,27.079" transform="translate(-182.776 715.046)"/></clipPath><clipPath id="s"><path class="c" d="M133.054-311.665,113.276-317.6H97.406l-19.779,5.936s-9.166,3.9-10.184,16.235h75.8c-1.018-12.337-10.184-16.235-10.184-16.235" transform="translate(-67.443 317.601)"/></clipPath><clipPath id="u"><path class="e" d="M133.054-296.91l-10.938-3.282L105.34-283.429,88.515-300.178,77.627-296.91s-9.166,3.9-10.184,16.235h75.8c-1.018-12.337-10.184-16.235-10.184-16.235" transform="translate(-67.443 300.192)"/></clipPath><clipPath id="v"><path class="f" d="M103-674.36h79.578V-764H103Z" transform="translate(-103 764)"/></clipPath><clipPath id="w"><path class="a" d="M225.6-722.753s9.783,15.516,34.038,18.155c0,0,4.59-17.675-12.469-26.269,0,0-13.055-5.388-21.569,8.115" transform="translate(-225.6 731.929)"/></clipPath><clipPath id="y"><path class="a" d="M190.41-699.439s-6.317,4.087-9.06,15.495c0,0-2.939-21.5,12.265-24.18l-3.206,8.685" transform="translate(-181.122 708.124)"/></clipPath><clipPath id="aa"><path class="a" d="M383.671-657.054s6.511,41.412-3.776,53.132c0,0,13.153-1.953,13.8-20.055,0,0,2.344-36.984-6.557-49.747l-3.47,16.67" transform="translate(-379.894 673.724)"/></clipPath><clipPath id="ac"><path class="a" d="M157.051-631.84s-15.142-1.795-10.975-48.365c0,0,1.042-25.863,16.187-26.459l-.876,9.813s-8.7,2.592-7.58,23.058c0,0-.886,32.967,3.244,41.952" transform="translate(-145.351 706.663)"/></clipPath></defs><g transform="translate(-53 -194.947)"><g class="g" transform="translate(53 194.947)"><g class="h" transform="translate(10.125 9.693)"><g class="i" transform="translate(0 0)"><g class="j" transform="translate(15.476 33.869)"><g class="k" transform="translate(-9.988 -37.985)"><path class="l" d="M163.514-519.833h44.349v41.765H163.514Z" transform="translate(-154.289 557.056)"/></g></g><g class="m" transform="translate(28.857 52.051)"><g class="n" transform="translate(-23.369 -56.167)"><path class="d" d="M251.292-400.571h19.74v13.8h-19.74Z" transform="translate(-228.685 455.975)"/></g></g><g class="o" transform="translate(28.857 52.051)"><g class="k" transform="translate(-23.369 -56.167)"><path class="p" d="M251.292-400.571h19.74V-388.4h-19.74Z" transform="translate(-228.685 455.975)"/></g></g><g class="q" transform="translate(56.618 27.301)"><g class="k" transform="translate(-51.13 -31.417)"><path class="r" d="M433.392-562.917h5.76V-551.2h-5.76Z" transform="translate(-383.024 593.572)"/></g></g><g class="s" transform="translate(56.765 28.752)"><g class="k" transform="translate(-51.277 -32.868)"><path class="t" d="M434.352-553.4h4.555v8.82h-4.555Z" transform="translate(-383.838 585.508)"/></g></g><g class="u" transform="translate(14.614 27.301)"><g class="k" transform="translate(-9.126 -31.417)"><path class="r" d="M157.863-562.917h5.759V-551.2h-5.759Z" transform="translate(-149.499 593.572)"/></g></g><g class="v" transform="translate(15.671 28.752)"><g class="k" transform="translate(-10.183 -32.868)"><path class="t" d="M164.8-553.4h4.557v8.82H164.8Z" transform="translate(-155.375 585.508)"/></g></g><g class="w" transform="translate(17.65 3.347)"><g class="n" transform="translate(-12.162 -7.463)"><path class="d" d="M177.776-720.046H219.93v57H177.776Z" transform="translate(-166.376 726.746)"/></g></g><g class="x" transform="translate(0.067 63.937)"><g class="n" transform="translate(5.421 -68.053)"><path class="d" d="M62.443-322.6h77.32v23.695H62.443Z" transform="translate(-68.626 389.892)"/></g></g><g class="y" transform="translate(0.067 66.591)"><g class="z" transform="translate(5.421 -70.707)"><path class="f" d="M62.443-305.192h77.32v21.041H62.443Z" transform="translate(-68.626 375.137)"/></g></g><g class="aa" transform="translate(24.178 0.773)"><g class="k" transform="translate(-18.69 -4.889)"><path class="ab" d="M220.6-736.929h36.124v28.855H220.6Z" transform="translate(-202.672 741.056)"/></g></g><g class="ac" transform="translate(17.398 4.402)"><g class="k" transform="translate(-11.91 -8.518)"><path class="ab" d="M176.122-713.124H190.14v25.7H176.122Z" transform="translate(-164.974 720.88)"/></g></g><g class="ad" transform="translate(47.7 9.646)"><g class="k" transform="translate(-42.212 -13.763)"><path class="ab" d="M374.894-678.724H390.5V-607.4H374.894Z" transform="translate(-333.444 691.724)"/></g></g><g class="ae" transform="translate(11.944 4.625)"><g class="k" transform="translate(-6.456 -8.741)"><path class="ab" d="M140.351-711.663h18.437v76.348H140.351Z" transform="translate(-134.657 719.642)"/></g></g></g></g></g><g transform="translate(117.094 257.877)"><g transform="translate(2.942)"><rect class="af" width="24.778" height="4.439" rx="0.952"/><g transform="translate(1.413)"><path class="ag" d="M89.293,256.4h-.945v4.439h.945" transform="translate(-88.348 -256.396)"/></g><g transform="translate(22.459)"><path class="ag" d="M142.665,256.4h-.945v4.439h.945" transform="translate(-141.72 -256.396)"/></g></g><g transform="translate(0 17.959)"><path class="af" d="M77.3,306a.437.437,0,0,0,.48.375H108.5a.438.438,0,0,0,.48-.375v-3.688a.438.438,0,0,0-.48-.375H77.784a.437.437,0,0,0-.48.375Z" transform="translate(-77.304 -301.937)"/><g transform="translate(1.806 0)"><path class="ag" d="M83.092,301.937H81.883v4.439h1.208" transform="translate(-81.883 -301.937)"/></g><g transform="translate(28.71 0)"><path class="ag" d="M151.319,301.937h-1.208v4.439h1.208" transform="translate(-150.111 -301.937)"/></g></g><g transform="translate(1.097 8.383)"><path class="ah" d="M80.085,281.719a.426.426,0,0,0,.463.375H110.2a.426.426,0,0,0,.463-.375v-3.688a.426.426,0,0,0-.463-.375H80.548a.426.426,0,0,0-.463.375Z" transform="translate(-80.085 -277.656)"/><g transform="translate(1.743)"><path class="af" d="M85.672,277.656H84.506v4.439h1.166" transform="translate(-84.506 -277.656)"/></g><g transform="translate(27.716)"><path class="af" d="M151.537,277.656h-1.166v4.439h1.166" transform="translate(-150.371 -277.656)"/></g></g><g transform="translate(4.116 22.397)"><path class="ah" d="M87.741,317.257a.426.426,0,0,0,.463.375h29.651a.426.426,0,0,0,.463-.375v-3.688a.426.426,0,0,0-.463-.375H88.2a.426.426,0,0,0-.463.375Z" transform="translate(-87.741 -313.194)"/><g transform="translate(1.744)"><path class="af" d="M93.329,313.194H92.163v4.439h1.166" transform="translate(-92.163 -313.194)"/></g><g transform="translate(27.717)"><path class="af" d="M159.194,313.194h-1.166v4.439h1.166" transform="translate(-158.028 -313.194)"/></g></g><g transform="translate(4.65 4.439)"><rect class="ai" width="23.313" height="3.359" transform="translate(0.269 0.409)"/><g transform="translate(0.269 0.915)"><rect class="aj" width="23.313" height="0.072"/><rect class="aj" width="23.313" height="0.072" transform="translate(0 0.569)"/><rect class="aj" width="23.313" height="0.072" transform="translate(0 1.138)"/><rect class="aj" width="23.313" height="0.072" transform="translate(0 1.707)"/><rect class="aj" width="23.313" height="0.072" transform="translate(0 2.275)"/></g><path class="ah" d="M89.1,267.928a.173.173,0,0,0,.153.188h23.545a.173.173,0,0,0,.152-.188v-.089a.173.173,0,0,0-.152-.188H89.25a.173.173,0,0,0-.153.188Z" transform="translate(-89.097 -267.652)"/><path class="ah" d="M89.1,277.343a.173.173,0,0,0,.153.188h23.545a.173.173,0,0,0,.152-.188v-.089a.173.173,0,0,0-.152-.188H89.25a.173.173,0,0,0-.153.188Z" transform="translate(-89.097 -273.354)"/></g><g transform="translate(3.432 12.744)"><path class="ai" d="M88.042,289.79h23.231a2.222,2.222,0,0,1,0,4.444H88.042Z" transform="translate(-87.239 -289.365)"/><g transform="translate(0.803 0.904)"><rect class="aj" width="24.667" height="0.072"/><rect class="aj" width="25.242" height="0.072" transform="translate(0 0.488)"/><rect class="aj" width="25.242" height="0.072" transform="translate(0 0.975)"/><rect class="aj" width="25.242" height="0.072" transform="translate(0 1.463)"/><rect class="aj" width="25.242" height="0.072" transform="translate(0 1.95)"/><rect class="aj" width="25.242" height="0.072" transform="translate(0 2.438)"/><rect class="aj" width="25.242" height="0.072" transform="translate(0 2.925)"/><rect class="aj" width="24.667" height="0.072" transform="translate(0 3.413)"/></g><path class="ah" d="M86.293,294.007h23.635a2.647,2.647,0,0,0,0-5.294H86.293a.287.287,0,1,0,0,.573h23.635a2.073,2.073,0,0,1,0,4.147H86.293a.287.287,0,1,0,0,.573Z" transform="translate(-86.006 -288.713)"/></g><g transform="translate(2.355 26.761)"><path class="ai" d="M109.52,325.338H86.289a2.222,2.222,0,1,0,0,4.444H109.52Z" transform="translate(-83.755 -324.913)"/><g transform="translate(0.523 0.905)"><rect class="aj" width="24.667" height="0.072" transform="translate(0.575)"/><rect class="aj" width="25.242" height="0.072" transform="translate(0 0.488)"/><rect class="aj" width="25.242" height="0.072" transform="translate(0 0.975)"/><rect class="aj" width="25.242" height="0.072" transform="translate(0 1.463)"/><rect class="aj" width="25.242" height="0.072" transform="translate(0 1.95)"/><rect class="aj" width="25.242" height="0.072" transform="translate(0 2.438)"/><rect class="aj" width="25.242" height="0.072" transform="translate(0 2.925)"/><rect class="aj" width="24.667" height="0.072" transform="translate(0.575 3.413)"/></g><path class="ah" d="M109.556,329.554H85.922a2.647,2.647,0,0,1,0-5.294h23.635a.287.287,0,1,1,0,.573H85.922a2.073,2.073,0,1,0,0,4.147h23.635a.287.287,0,0,1,0,.574Z" transform="translate(-83.275 -324.26)"/></g></g></g></svg>