<svg xmlns="http://www.w3.org/2000/svg" viewBox="0 0 24 24" width="24" height="24">
	<style>
		tspan { white-space:pre }
		.shp0 { fill: none } 
		.shp1 { fill: #aeaeb2 } 
	</style>
	<g id="Layer">
		<path id="Layer" class="shp0" d="M0 0L24 0L24 24L0 24L0 0Z" />
	</g>
	<g id="Layer">
		<path id="Layer" class="shp1" d="M13 8C13 5.79 11.21 4 9 4C6.79 4 5 5.79 5 8C5 10.21 6.79 12 9 12C11.21 12 13 10.21 13 8ZM15 10L15 12L18 12L18 15L20 15L20 12L23 12L23 10L20 10L20 7L18 7L18 10L15 10ZM1 18L1 20L17 20L17 18C17 15.34 11.67 14 9 14C6.33 14 1 15.34 1 18Z" />
	</g>
</svg>