<svg xmlns="http://www.w3.org/2000/svg" width="24" height="24" viewBox="0 0 24 24"><defs><style>.a{fill:none;}.b{fill:#8e8e93;}</style></defs><rect class="a" width="24" height="24"/><g transform="translate(-799.598 -575)"><path class="b" d="M28.23,33.238l2.335-2.421v-1.96h1.625a1.848,1.848,0,0,0,1.846-1.846V21.2a1.849,1.849,0,0,0-1.846-1.846H30.566V10.238H16.071v9.116H14.446A1.849,1.849,0,0,0,12.6,21.2v5.811a1.848,1.848,0,0,0,1.846,1.846h1.625v4.381Zm.19-1.15V31.014h1.035ZM29.9,30.353H27.759v2.224H16.733v-6.77H29.9ZM16.733,10.9H29.9v9.453H16.733Zm-2.287,9.116h1.625v1H30.566v-1h1.625a1.185,1.185,0,0,1,0,2.369H14.446a1.185,1.185,0,1,1,0-2.369Zm0,8.18a1.186,1.186,0,0,1-1.185-1.184v-4.4a1.837,1.837,0,0,0,1.185.432H32.191a1.837,1.837,0,0,0,1.185-.432v4.4A1.186,1.186,0,0,1,32.191,28.2H30.566v-3.05H16.071V28.2Z" transform="translate(788 565.762)"/><rect class="b" width="8.095" height="0.662" transform="translate(807.271 593.039)"/><rect class="b" width="8.095" height="0.662" transform="translate(807.271 594.876)"/><path class="b" d="M16.516,52.032h1.811V50.222H16.516Zm.662-1.149h.488v.488h-.488Z" transform="translate(785.38 539.006)"/><path class="b" d="M69.822,50.222H68.011v1.811h1.811Zm-.662,1.149h-.488v-.488h.488Z" transform="translate(750.92 539.006)"/></g></svg>