<?xml version="1.0" encoding="iso-8859-1"?>
<!-- Generator: Adobe Illustrator 18.0.0, SVG Export Plug-In . SVG Version: 6.00 Build 0)  -->
<!DOCTYPE svg PUBLIC "-//W3C//DTD SVG 1.1//EN" "http://www.w3.org/Graphics/SVG/1.1/DTD/svg11.dtd">
<svg version="1.1" id="Capa_1" xmlns="http://www.w3.org/2000/svg" xmlns:xlink="http://www.w3.org/1999/xlink" x="0px" y="0px"
	 viewBox="0 0 415.835 415.835" style="enable-background:new 0 0 415.835 415.835;" xml:space="preserve">
<g>
	<path d="M379.124,151.468h-24.696v-60.72c0-4.142-3.357-7.5-7.5-7.5h-33.436V18.067c0-4.142-3.357-7.5-7.5-7.5h-196.16
		c-4.143,0-7.5,3.358-7.5,7.5v65.181H68.896c-4.143,0-7.5,3.358-7.5,7.5v60.72H36.712C16.469,151.468,0,167.937,0,188.179v172.059
		c0,4.142,3.357,7.5,7.5,7.5h94.832v30.029c0,4.142,3.357,7.5,7.5,7.5h196.159c4.143,0,7.5-3.358,7.5-7.5v-30.029h94.844
		c4.143,0,7.5-3.358,7.5-7.5V188.179C415.835,167.937,399.366,151.468,379.124,151.468z M339.428,98.248v53.22h-25.936v-53.22
		H339.428z M298.492,25.567v125.901h-181.16V25.567H298.492z M76.396,98.248h25.936v53.22H76.396V98.248z M102.332,321.239H86.404
		c-5.519,0-10.008-4.489-10.008-10.007c0-5.518,4.489-10.007,10.008-10.007h15.928V321.239z M117.332,390.268v-89.043h181.159
		v89.043H117.332z M313.491,301.224h15.929c5.519,0,10.008,4.489,10.008,10.007c0,5.518-4.489,10.007-10.008,10.007h-15.929V301.224
		z M400.835,352.739h-87.344v-16.5h15.929c13.789,0,25.008-11.218,25.008-25.007s-11.219-25.007-25.008-25.007H86.404
		c-13.789,0-25.008,11.218-25.008,25.007s11.219,25.007,25.008,25.007h15.928v16.5H15V188.179c0-11.972,9.74-21.711,21.712-21.711
		h342.412c11.972,0,21.711,9.74,21.711,21.711V352.739z"/>
	<path d="M271.156,355.043H144.667c-4.143,0-7.5,3.358-7.5,7.5s3.357,7.5,7.5,7.5h126.489c4.143,0,7.5-3.358,7.5-7.5
		S275.299,355.043,271.156,355.043z"/>
	<path d="M271.156,323.021H144.667c-4.143,0-7.5,3.358-7.5,7.5s3.357,7.5,7.5,7.5h126.489c4.143,0,7.5-3.358,7.5-7.5
		S275.299,323.021,271.156,323.021z"/>
	<path d="M372.188,193.461h-85.398c-4.143,0-7.5,3.358-7.5,7.5s3.357,7.5,7.5,7.5h85.398c4.143,0,7.5-3.358,7.5-7.5
		S376.33,193.461,372.188,193.461z"/>
	<path d="M267.471,194.726c-2.732-1.798-6.388-1.634-8.926,0.439c-2.325,1.899-3.286,5.106-2.412,7.972
		c0.873,2.866,3.449,4.997,6.438,5.286c3.251,0.315,6.414-1.579,7.66-4.598C271.57,200.581,270.418,196.667,267.471,194.726z"/>
</g>
<g>
</g>
<g>
</g>
<g>
</g>
<g>
</g>
<g>
</g>
<g>
</g>
<g>
</g>
<g>
</g>
<g>
</g>
<g>
</g>
<g>
</g>
<g>
</g>
<g>
</g>
<g>
</g>
<g>
</g>
</svg>
