<svg xmlns="http://www.w3.org/2000/svg" width="24" height="24" viewBox="0 0 24 24"><defs><style>.a{fill:none;}.b{fill:#8e8e93;}</style></defs><rect class="a" width="24" height="24"/><path class="b" d="M29.632,2.5a1.607,1.607,0,0,0-1.6,1.6V5.115H24.52a3.223,3.223,0,0,0-3.22,3.22V23.28a3.223,3.223,0,0,0,3.22,3.22H34.744a3.419,3.419,0,0,0,1.268-.254.019.019,0,0,0,.02-.019,3.653,3.653,0,0,0,1.385.273,3.707,3.707,0,0,0,.527-7.376V8.315a3.223,3.223,0,0,0-3.22-3.22H31.232V4.08A1.6,1.6,0,0,0,29.632,2.5Zm0,.566A1.007,1.007,0,0,1,30.647,4.08V5.1H28.618V4.08A1.02,1.02,0,0,1,29.632,3.066Zm0,.273a.78.78,0,1,0,.78.78A.783.783,0,0,0,29.632,3.339Zm0,.585a.2.2,0,1,1-.2.2A.184.184,0,0,1,29.632,3.925ZM24.52,5.681h.917V6.7a1.607,1.607,0,0,0,1.6,1.6h5.21a1.607,1.607,0,0,0,1.6-1.6V5.681h.917a2.631,2.631,0,0,1,2.614,2.634V19.085a3.7,3.7,0,0,0-2.049,6.751,3.013,3.013,0,0,1-.585.078H24.52a2.648,2.648,0,0,1-2.634-2.634V8.315A2.648,2.648,0,0,1,24.52,5.681Zm1.5,0h7.22V6.7A1.02,1.02,0,0,1,32.228,7.71H27.037A1.02,1.02,0,0,1,26.023,6.7Zm3.61,4.429a3.8,3.8,0,1,0,3.8,3.8A3.8,3.8,0,0,0,29.632,10.11Zm0,.585A3.2,3.2,0,0,1,32.5,15.359a3.577,3.577,0,0,0-2.868-1.405,3.633,3.633,0,0,0-2.868,1.405,3.285,3.285,0,0,1-.351-1.444A3.223,3.223,0,0,1,29.632,10.7Zm-.039.566a1.3,1.3,0,0,0-1.288,1.288.3.3,0,0,1,.039.156,1.259,1.259,0,0,0,.9,1.093h.019a.176.176,0,0,0,.1.019H29.4c.039,0,.059.019.1.019h.332c.039,0,.059,0,.078-.019h.039c.02,0,.059-.019.078-.019a.068.068,0,0,0,.039-.019c.02,0,.039-.02.059-.02s.039-.019.059-.019.039-.019.058-.019c.02-.02.039-.019.059-.039.02,0,.019-.02.039-.02.02-.02.039-.019.059-.039.02,0,.019-.019.039-.019l.059-.059.019-.019a.27.27,0,0,1,.078-.059l.019-.019c.02-.02.039-.059.059-.078v-.019c.02-.02.039-.059.058-.078v-.019c.02-.039.039-.059.059-.1v-.019c.02-.039.039-.059.039-.1v-.019c.02-.039.02-.059.039-.1V12.88c0-.02.019-.058.019-.078v-.254A1.286,1.286,0,0,0,29.593,11.261Zm0,.624a.7.7,0,0,1,.7.7.165.165,0,0,1,.039.137c0,.02-.019.039-.019.058s-.019.059-.019.078-.02.039-.039.059c0,.02-.019.039-.039.058s-.019.039-.039.059-.02.039-.039.039l-.039.039c-.02.02-.039.039-.059.039-.02.02-.039.02-.058.039s-.039.019-.059.039c-.02,0-.039.019-.059.019s-.058.019-.078.019H29.73c-.039,0-.078.02-.117.02a.176.176,0,0,1-.1-.02h-.059c-.039,0-.059-.019-.1-.039-.02,0-.019,0-.039-.019a.426.426,0,0,1-.1-.059H29.2a.666.666,0,0,1-.293-.429c0-.039-.02-.1-.02-.137A.7.7,0,0,1,29.593,11.885Zm.039,2.654A3.012,3.012,0,0,1,32.169,15.9a3.231,3.231,0,0,1-5.073,0A3.012,3.012,0,0,1,29.632,14.539ZM25.5,19.085a.293.293,0,0,0,0,.585h8.273a.293.293,0,0,0,0-.585Zm11.941.585a3.122,3.122,0,1,1-3.122,3.122A3.131,3.131,0,0,1,37.437,19.671ZM25.5,21.037a.293.293,0,0,0,0,.585h4.37a.293.293,0,1,0,0-.585Zm13.572.356a.3.3,0,0,0-.246.132l-1.346,1.99-.761-1.053a.3.3,0,0,0-.41-.039.285.285,0,0,0-.058.41l1.014,1.386a.278.278,0,0,0,.234.117.3.3,0,0,0,.234-.137l1.58-2.341a.289.289,0,0,0-.078-.41A.282.282,0,0,0,39.068,21.392ZM25.5,22.988a.293.293,0,0,0,0,.585h4.37a.293.293,0,0,0,0-.585Z" transform="translate(-19.301 -2.5)"/></svg>