<svg xmlns="http://www.w3.org/2000/svg" width="59.25" height="78.75" viewBox="0 0 59.25 78.75"><defs><style>.a{fill:none;stroke:#1c1c1e;stroke-width:0.75px;}</style></defs><g transform="translate(-7.625 0.375)"><path class="a" d="M31.279,12.458c-6.895,0-12.5,6.012-12.5,13.4a13.684,13.684,0,0,0,5.457,11.061V52.055l7.047-4.372,7.046,4.381V36.92a13.68,13.68,0,0,0,5.457-11.061C43.783,18.47,38.174,12.458,31.279,12.458ZM37,49.6l-5.722-3.557L25.557,49.6V37.761a11.673,11.673,0,0,0,11.444,0ZM31.279,37.841c-6.165,0-11.18-5.376-11.18-11.981s5.015-11.983,11.18-11.983,11.18,5.376,11.18,11.981S37.444,37.841,31.279,37.841Z" transform="translate(5.97 6.74)"/><path class="a" d="M8,78H66.5V0H8ZM9.706,1.706H64.794V76.294H9.706Z" transform="translate(0)"/></g></svg>