<svg xmlns="http://www.w3.org/2000/svg" width="20" height="12.069" viewBox="0 0 20 12.069"><defs><style>.a{fill:#aeaeb2;}</style></defs><g transform="translate(16027.238 6660)"><g transform="translate(-16019.542 -6659.445)"><path class="a" d="M42.714,39.541a.644.644,0,0,1-.438-.175.636.636,0,0,1,0-.877l7.072-7.014a.62.62,0,1,1,.877.877l-7.043,7.014A.848.848,0,0,1,42.714,39.541Z" transform="translate(-42.1 -31.3)"/></g><g transform="translate(-16027.238 -6653.816)"><path class="a" d="M20.829,56.184a.644.644,0,0,1-.438-.175l-4.442-4.383a.62.62,0,1,1,.877-.877l4.442,4.383a.609.609,0,0,1,0,.877A.644.644,0,0,1,20.829,56.184Z" transform="translate(-15.762 -50.562)"/></g><g transform="translate(-16023.819 -6660)"><path class="a" d="M32.529,41.469a.644.644,0,0,1-.438-.175L27.648,36.91a.62.62,0,1,1,.877-.877l4,3.945,10.462-10.4a.62.62,0,1,1,.877.877l-10.9,10.842A.6.6,0,0,1,32.529,41.469Z" transform="translate(-27.462 -29.4)"/></g></g></svg>