<svg xmlns="http://www.w3.org/2000/svg" width="19.855" height="19.856" viewBox="0 0 19.855 19.856"><defs><style>.a{fill:none;stroke:#8e8e93;stroke-width:0.8px;}</style></defs><g transform="translate(0.4 0.457)"><path class="a" d="M53.779,47.79l4.094,4.094c.364-.4.745-.854,1.133-1.359a1.015,1.015,0,0,0-.143-1.318l-2.551-2.551a1.076,1.076,0,0,0-.775-.321.891.891,0,0,0-.644.275c-.426.447-.726.764-.953,1.008Z" transform="translate(-40.189 -34.955)"/><path class="a" d="M19.241,13.246c.244-.227.56-.527,1.008-.953a.891.891,0,0,0,.275-.644,1.076,1.076,0,0,0-.321-.775L17.654,8.325a1.01,1.01,0,0,0-1.316-.141c-.5.387-.959.766-1.36,1.133l4.091,4.091Z" transform="translate(-12.906 -8.001)"/><path class="a" d="M25.274,29.45c-1.131,1.146-2.066,1.689-2.844,1.636-2.4-.16-5.928-2.568-8.894-5.534S8.166,19.059,8,16.658c-.05-.775.5-1.731,1.639-2.841l4.094,4.094-.071.068-.217-.2.211.208a.956.956,0,0,0-.193,1.066,13.424,13.424,0,0,0,2.77,3.8,13.481,13.481,0,0,0,3.8,2.773A.961.961,0,0,0,21.1,25.43l.077-.077Z" transform="translate(-7.999 -12.09)"/></g></svg>