<svg xmlns="http://www.w3.org/2000/svg" width="18.244" height="18.369" viewBox="0 0 18.244 18.369"><defs><style>.a{fill:#77a694;stroke:#77a694;stroke-width:0.2px;}</style></defs><g transform="translate(0.127 0.126)"><path class="a" d="M13.216,4.494A7.839,7.839,0,0,0,9.6,19.288L8.441,21.035a.426.426,0,1,0,.712.47l1.231-1.863a7.735,7.735,0,0,0,5.686-.007l1.43,1.892a.427.427,0,1,0,.681-.514l-1.315-1.739a7.839,7.839,0,0,0-3.65-14.779Zm0,14.833a6.99,6.99,0,1,1,6.99-6.99,6.99,6.99,0,0,1-6.99,6.99Z" transform="translate(-4.318 -3.554)"/><path class="a" d="M3.754,5.889a2.749,2.749,0,0,1,3.507-2.64A.427.427,0,1,0,7.5,2.43a3.6,3.6,0,0,0-4.444,4.5.427.427,0,0,0,.408.3.434.434,0,0,0,.123-.018A.427.427,0,0,0,3.87,6.68a2.747,2.747,0,0,1-.116-.791Z" transform="translate(-2.901 -2.29)"/><path class="a" d="M34.906,2.29a3.6,3.6,0,0,0-1,.14.427.427,0,0,0,.236.82A2.749,2.749,0,0,1,37.537,6.68a.427.427,0,0,0,.286.531.435.435,0,0,0,.123.018.427.427,0,0,0,.408-.3A3.6,3.6,0,0,0,34.906,2.29Z" transform="translate(-20.505 -2.29)"/><path class="a" d="M26.76,16.14H23.614V12.3a.427.427,0,0,0-.853,0v4.27a.427.427,0,0,0,.427.427H26.76a.427.427,0,1,0,0-.853Z" transform="translate(-14.289 -7.783)"/></g></svg>