<svg xmlns="http://www.w3.org/2000/svg" width="15.165" height="19.167" viewBox="0 0 15.165 19.167"><defs><style>.a,.e{fill:none;}.a,.b,.c{stroke:#8e8e93;}.b{fill:#fff;}.c{fill:#8e8e93;stroke-width:0.2px;}.d{stroke:none;}</style></defs><g transform="translate(0.5 0.5)"><ellipse class="a" cx="4.175" cy="4.25" rx="4.175" ry="4.25" transform="translate(1.917)"/><path class="a" d="M34.771,74.839a4.9,4.9,0,0,1-4.769,0c-1.468,1.339-3.707,2.83-3.707,7.019H38.478C38.478,77.669,36.239,76.178,34.771,74.839Z" transform="translate(-26.295 -65.742)"/><g class="b" transform="translate(7.332 11.2)"><ellipse class="d" cx="3.667" cy="3.733" rx="3.667" ry="3.733"/><ellipse class="e" cx="3.667" cy="3.733" rx="3.167" ry="3.233"/></g><path class="c" d="M26.895,30.363l-2.04,2.077a.216.216,0,0,1-.16.063.225.225,0,0,1-.16-.063l-.75-.763a.218.218,0,0,1,0-.3.2.2,0,0,1,.147-.063.189.189,0,0,1,.147.063l.615.626,1.905-1.94A.2.2,0,0,1,26.747,30a.189.189,0,0,1,.147.063A.218.218,0,0,1,26.895,30.363Z" transform="translate(-14.395 -16.076)"/></g></svg>