<svg xmlns="http://www.w3.org/2000/svg" width="24" height="24" viewBox="0 0 24 24"><defs><style>.a{fill:none;}.b{fill:#8e8e93;}</style></defs><g transform="translate(19348 -6650)"><g transform="translate(95 127)"><g transform="translate(-19443 6523)"><rect class="a" width="24" height="24" transform="translate(0 0)"/><g transform="translate(2.666 4)"><path class="b" d="M19.242,3.6H17.97V2.4a.413.413,0,0,0-.424-.4h-.212a11.827,11.827,0,0,0-7,2.3,11.774,11.774,0,0,0-7-2.3H3.121a.413.413,0,0,0-.424.4V3.6H1.424A.413.413,0,0,0,1,4V16.807a.413.413,0,0,0,.424.4H7.279a5.844,5.844,0,0,1,2.019.36l.848.4h0a.421.421,0,0,0,.322,0h0l.848-.392a6,6,0,0,1,2.07-.368h5.855a.413.413,0,0,0,.424-.4V4A.413.413,0,0,0,19.242,3.6ZM10.758,16.791V4.993A10.867,10.867,0,0,1,17.121,2.8V14.806a11.948,11.948,0,0,0-6.364,1.985ZM3.545,2.8A10.929,10.929,0,0,1,9.909,4.993v11.8a11.948,11.948,0,0,0-6.364-1.985Zm-1.7,13.607V4.4H2.7V15.207a.413.413,0,0,0,.424.4h.187a11.148,11.148,0,0,1,4.132.8Zm16.97,0H13.227a11.148,11.148,0,0,1,4.132-.8h.187a.413.413,0,0,0,.424-.4V4.4h.848Z" transform="translate(-1 -2)"/></g></g></g></g></svg>