<svg xmlns="http://www.w3.org/2000/svg" width="24" height="24" viewBox="0 0 24 24"><defs><style>.a{fill:none;}.b{fill:#8e8e93;}</style></defs><g transform="translate(19348 -6482)"><g transform="translate(-152 297)"><g transform="translate(-19196 6185)"><rect class="a" width="24" height="24"/><g transform="translate(1.334 2.667)"><path class="b" d="M19.2,53.666a2.1,2.1,0,0,0-1.847-2.082V46.2a.719.719,0,0,0-1.34-.361,8.611,8.611,0,0,1-5.32,3.972,11.306,11.306,0,0,1-3.318.439.417.417,0,0,0-.065,0H3.487a3.487,3.487,0,0,0-.331,6.957L4.31,61.96a1.394,1.394,0,0,0,1.358,1.067h.8A1.4,1.4,0,0,0,7.827,61.3l-.99-4.07h.476a.414.414,0,0,0,.066,0,11.307,11.307,0,0,1,3.318.439,8.612,8.612,0,0,1,5.32,3.972.71.71,0,0,0,.616.358.738.738,0,0,0,.192-.026.711.711,0,0,0,.532-.694V55.9A2.1,2.1,0,0,0,19.2,53.819ZM6.886,60.955l.132.541a.564.564,0,0,1-.548.7h-.8a.563.563,0,0,1-.548-.431l-1.1-4.534H5.98l.294,1.21h-.2a.417.417,0,1,0,0,.833h.4l.206.849H6.553a.417.417,0,1,0,0,.833Zm.053-6.327H4.349a.417.417,0,0,0,0,.833H6.939V56.4H3.475a2.653,2.653,0,0,1,.012-5.307H6.939Zm9.585-2.643v8.889A9.607,9.607,0,0,0,10.9,56.861a12.558,12.558,0,0,0-3.125-.467v-5.3a12.559,12.559,0,0,0,3.125-.467,9.607,9.607,0,0,0,5.627-4.013Zm1.847,1.834a1.267,1.267,0,0,1-1.014,1.24V52.426a1.267,1.267,0,0,1,1.014,1.24Z" transform="translate(0 -45.484)"/><path class="b" d="M454.3,141a.415.415,0,0,0,.28-.109l1.2-1.095a.417.417,0,1,0-.561-.616l-1.2,1.094a.417.417,0,0,0,.281.725Z" transform="translate(-434.974 -135.17)"/><path class="b" d="M454.583,302.132a.417.417,0,1,0-.561.616l1.2,1.094a.417.417,0,1,0,.561-.616Z" transform="translate(-434.974 -291.335)"/><path class="b" d="M471.192,233.68h-.923a.417.417,0,1,0,0,.833h.923a.417.417,0,1,0,0-.833Z" transform="translate(-450.276 -225.839)"/><path class="b" d="M53.982,265.186a.41.41,0,0,0-.038-.072.419.419,0,0,0-.187-.153.441.441,0,0,0-.078-.024.412.412,0,0,0-.163,0,.42.42,0,0,0-.078.024.429.429,0,0,0-.072.038.405.405,0,0,0-.115.115.41.41,0,0,0-.038.072.42.42,0,0,0-.024.078.41.41,0,0,0-.008.081.418.418,0,0,0,.008.082.441.441,0,0,0,.024.078.421.421,0,0,0,.038.072.4.4,0,0,0,.052.063.412.412,0,0,0,.135.09.43.43,0,0,0,.078.024.427.427,0,0,0,.163,0,.44.44,0,0,0,.078-.024.425.425,0,0,0,.072-.038.451.451,0,0,0,.064-.052.423.423,0,0,0,.09-.135.441.441,0,0,0,.024-.078.417.417,0,0,0,.008-.082.41.41,0,0,0-.008-.081A.42.42,0,0,0,53.982,265.186Z" transform="translate(-50.964 -255.785)"/></g></g></g></g></svg>