<svg xmlns="http://www.w3.org/2000/svg" width="24" height="24" viewBox="0 0 24 24"><defs><style>.a{fill:none;}.b{fill:#8e8e93;}</style></defs><g transform="translate(19348 -6555)"><g transform="translate(114 4)"><g transform="translate(-316 248)"><rect class="a" width="24" height="24" transform="translate(-19146 6303)"/><g transform="translate(-19145 6309)"><path class="b" d="M26.143,4.571,24.832,1.687A2.9,2.9,0,0,0,22.2,0H7.514A2.514,2.514,0,0,0,5,2.51V8.782a1.378,1.378,0,0,0,1.378,1.375H8.434a2.12,2.12,0,0,0,4.154,0h6.157a2.12,2.12,0,0,0,4.154,0h2.255a1.179,1.179,0,0,0,1.178-1.176V5.447A2.105,2.105,0,0,0,26.143,4.571Zm-.919.028-3.978-.332V2.488L24.1,2.132ZM10.511,11a1.27,1.27,0,1,1,1.272-1.27A1.271,1.271,0,0,1,10.511,11Zm10.311,0a1.27,1.27,0,1,1,1.272-1.27A1.271,1.271,0,0,1,20.822,11Zm4.333-1.693H22.9a2.12,2.12,0,0,0-4.154,0H12.588a2.12,2.12,0,0,0-4.154,0H6.378a.53.53,0,0,1-.53-.529V2.51A1.666,1.666,0,0,1,7.514.846H22.2a2.046,2.046,0,0,1,1.34.5L20.8,1.693H8.391a.424.424,0,0,0-.424.423V4.655a.424.424,0,0,0,.424.423H20.8l4.681.389V8.981A.331.331,0,0,1,25.155,9.311ZM8.815,4.232V2.539h2.968V4.232Zm3.815-1.693H11.92V4.232h.711Zm.137,0h2.968V4.232H12.768Zm3.815,0H20.4V4.232H16.583Zm0,0" transform="translate(-5)"/></g></g></g></g></svg>